<?xml version="1.0" encoding="UTF-8" standalone="no"?>
<!-- Created with Inkscape (http://www.inkscape.org/) -->

<svg
   width="359.01376mm"
   height="152.65475mm"
   viewBox="0 0 359.01376 152.65476"
   version="1.1"
   id="svg1"
   xml:space="preserve"
   xmlns="http://www.w3.org/2000/svg"
   xmlns:svg="http://www.w3.org/2000/svg"><defs
     id="defs1" /><g
     id="layer1"
     transform="translate(174.98964,-835.23316)"><path
       id="text31-8-1-5"
       style="font-style:normal;font-variant:normal;font-weight:bold;font-stretch:normal;font-size:75.5112px;line-height:151.172px;font-family:Cairo;-inkscape-font-specification:'Cairo Bold';text-align:start;text-decoration-color:#000000;letter-spacing:3.77931px;word-spacing:7.55865px;writing-mode:lr-tb;direction:rtl;text-anchor:start;vector-effect:non-scaling-stroke;fill:#ffffff;fill-opacity:1;stroke:none;stroke-width:3.77931;stroke-dashoffset:8;-inkscape-stroke:hairline"
       d="m -66.623128,835.23316 c -7.777654,0 -13.969721,4.53069 -16.38608,21.4452 l -5.285465,-0.22634 c 0.226533,0.83062 0.226342,1.35903 0.226342,2.03864 0,0.6796 1.91e-4,1.05711 -0.226342,1.88774 l 5.285465,-0.0755 v 7.85327 c 0,8.1552 -0.226541,15.63036 -0.604097,24.46517 1.28369,-0.22654 3.473395,-0.37724 5.66322,-0.37724 2.114313,0 4.380046,0.1507 5.663737,0.37724 -0.377556,-8.83481 -0.604098,-16.30997 -0.604098,-24.46517 v -7.92872 l 7.097758,0.1509 c -0.07551,-0.52858 -0.226342,-1.05712 -0.226342,-1.88774 0,-0.37756 -1.91e-4,-0.60393 0.226342,-2.03864 l -7.097758,0.1509 c -2.340847,-4.22863 -3.549137,-7.77766 -3.549137,-9.81646 0,-2.41636 1.661111,-3.24735 4.455025,-3.24735 2.49187,0 5.134793,1.05738 7.324618,2.19005 l 0.906404,-0.30179 v -3.02049 c 0,-3.24698 0.07526,-5.36125 0.301791,-6.79597 -1.283691,-0.30204 -2.189737,-0.37775 -3.171383,-0.37775 z m -108.365992,5.28598 c 0.37755,5.13476 0.60409,12.83651 0.60409,19.4815 v 13.13925 c 0,5.28578 -0.22654,13.66714 -0.60409,19.4815 3.85107,-0.37756 4.98369,-0.37724 6.19187,-0.37724 1.28369,0 2.41631,-3.2e-4 6.19187,0.37724 -0.30205,-4.83272 -0.6041,-11.55285 -0.6041,-21.29379 v -2.7187 h 0.67954 l 13.51649,24.01249 c 3.3225,-0.30205 5.73875,-0.37724 6.87142,-0.37724 1.13267,0 3.17143,0.0752 6.79597,0.37724 l -11.02466,-17.14056 c -1.13266,-1.81227 -2.71827,-4.68174 -5.05912,-8.53281 7.55112,-1.88778 11.7042,-6.56966 11.7042,-13.89424 0,-5.51232 -2.94484,-9.21232 -6.87142,-11.1001 -1.88778,-0.98165 -5.66323,-1.43454 -11.17554,-1.43454 -5.13476,0 -8.23074,0.37724 -11.02465,0.37724 -2.26534,0 -5.43676,-0.1507 -6.19187,-0.37724 z m 171.576604,2.26498 c -3.5490264,1.73676 -6.796079,3.17166 -10.345105,4.68189 0.226534,5.66334 0.30179,7.249 0.30179,9.2878 l -5.285465,-0.22634 c 0.151022,0.60409 0.226343,1.28352 0.226343,2.03863 0,0.6796 -0.150832,1.35916 -0.226343,1.88774 l 5.285465,-0.0754 v 0.60409 c 0,2.94494 -0.528649,18.87782 -0.528649,20.84111 0,7.92867 3.17166,11.85509 9.5901118,11.85509 2.7939144,0 6.191703,-0.75501 8.2305054,-1.96319 v -3.09593 c -0.9816456,0.6796 -2.491591,0.75499 -3.39772544,0.75499 -2.03880236,0 -2.86966376,-0.60405 -3.39824216,-1.88774 -0.5285784,-1.28369 -0.9058879,-4.15325 -0.9058879,-10.26966 0,-2.64289 7.15e-5,-9.13656 0.5286499,-16.91421 l 6.6445557,0.15089 c -0.1510224,-0.52858 -0.2263428,-1.13263 -0.2263428,-1.88774 0,-0.6796 0.07532,-1.35903 0.2263428,-2.03863 l -6.6445557,0.15089 c 0,-4.00209 0.3019891,-11.17577 0.6795451,-13.36559 z m -159.570624,2.03915 c 7.24908,0 9.28815,0.9815 10.72286,3.85093 0.6796,1.28369 0.98134,3.32264 0.98134,5.96553 0,6.19192 -2.56733,10.87324 -10.496,10.87324 -0.22654,0 -0.90596,-0.0754 -1.43454,-0.1509 0,-7.55112 -1.9e-4,-13.96932 0.22634,-20.5388 z m 324.91712,5.64307 c 0.1957,1.98143 0.19534,5.6752 0.19534,6.67814 v 5.16196 c 0,0.97849 3.6e-4,4.74564 -0.19534,6.67815 0.39139,-0.0734 0.73378,-0.12247 1.10071,-0.12247 0.36693,0 0.70931,0.0491 1.10071,0.12247 -0.12231,-1.05187 -0.19586,-5.01472 -0.19586,-6.67815 v -5.16196 c 0,-1.63896 0.0736,-5.62627 0.19586,-6.67814 -0.3914,0.0734 -0.73378,0.12247 -1.10071,0.12247 -0.36693,0 -0.70932,-0.0491 -1.10071,-0.12247 z m -80.295873,1.32137 c -0.660477,0 -1.247469,0.53806 -1.247469,1.24746 0,0.68494 0.562529,1.24747 1.247469,1.24747 0.684939,0 1.247469,-0.56253 1.247469,-1.24747 0,-0.7094 -0.586992,-1.24746 -1.247469,-1.24746 z m 44.039173,0 c -5.62629,0 -9.1488,3.42434 -9.1488,8.75708 0,5.5529 3.76713,8.75761 9.1488,8.75761 5.47951,0 9.17308,-3.27809 9.17308,-8.75761 0,-5.47951 -3.69357,-8.75708 -9.17308,-8.75708 z m -101.798955,0.31781 c 0.09785,2.15266 0.195853,4.32983 0.195853,6.01772 v 4.84363 c 0,1.68788 -0.09801,3.86505 -0.195853,6.01772 1.174181,-0.0978 2.250601,-0.12247 3.253548,-0.12247 1.149719,0 2.225965,0.12247 3.277836,0.12247 4.794574,0 8.928654,-3.00884 8.928654,-8.78189 0,-5.40613 -2.617667,-8.09718 -8.09718,-8.09718 -1.198644,0 -2.421285,0.12247 -3.693315,0.12247 -1.149719,0 -2.373051,-0.0491 -3.669543,-0.12247 z m 152.098205,0.31781 c -2.20159,0 -3.76721,1.61472 -3.76721,3.66954 0,1.24757 0.68464,2.44591 1.63866,3.81579 -2.73975,1.17418 -4.45192,3.25356 -4.45192,5.28391 0,2.47068 1.90819,4.10983 4.69687,4.10983 1.93251,0 3.49784,-0.636 5.25911,-2.39727 0.7094,0.85617 1.27191,1.61468 1.54099,2.07946 0.56263,-0.0734 0.92979,-0.12247 1.41903,-0.12247 0.48925,0 0.88052,0.0491 1.541,0.12247 l -3.13108,-3.52278 c 1.29649,-1.56558 2.32364,-2.98454 3.30213,-4.55011 -0.36694,-0.26909 -0.70899,-0.51346 -0.92915,-0.97824 -0.78278,1.73681 -1.73675,3.2536 -2.91093,4.84363 -1.46773,-1.59003 -2.81349,-3.44942 -4.30568,-5.333 2.15267,-1.27203 3.35122,-2.81315 3.35122,-4.28088 0,-1.73681 -1.2716,-2.73988 -3.25304,-2.73988 z m -50.32354,0.26923 c 4.23195,0 6.8001,2.8375 6.8001,7.85223 0,4.99027 -2.56833,7.85224 -6.77581,7.85224 -4.18302,0 -6.75153,-2.86197 -6.75153,-7.85224 0,-5.03919 2.59314,-7.85223 6.72724,-7.85223 z m 50.32354,0.41599 c 1.19865,0 1.98128,0.83173 1.98128,2.03037 0,1.29649 -0.90542,2.81302 -2.49546,3.7915 -0.97848,-1.27203 -1.54099,-2.64214 -1.54099,-3.52278 0,-1.34542 0.85653,-2.29909 2.05517,-2.29909 z m -146.080485,0.0243 c 5.014733,0 7.045048,2.03066 7.045048,7.06986 0,5.25935 -2.51969,7.87652 -7.534424,7.87652 -1.100795,0 -2.617539,-0.12212 -3.180167,-0.24443 -0.122311,-1.85912 -0.146761,-3.7673 -0.146761,-4.84363 v -4.89221 c 0,-1.17418 0.02445,-3.10718 0.146761,-4.72168 1.247568,-0.17123 2.4709,-0.24443 3.669543,-0.24443 z m 44.279985,0.88057 -2.030367,0.85628 0.09767,2.73988 c -0.269083,0 -0.733735,10e-6 -1.614372,-0.0734 0.02446,0.17124 0.04909,0.31814 0.04909,0.48938 0,0.19569 0.02429,0.29315 -0.04909,0.56224 0.269084,-0.0245 0.807291,-0.0486 1.663465,-0.0486 -0.02446,3.64486 -0.171049,6.48221 -0.171049,7.583 0,2.07928 1.002708,3.10679 3.008602,3.10679 0.58709,0 1.272053,-0.14675 1.883606,-0.3669 v -0.58705 c -0.293546,0.0978 -0.758065,0.17105 -1.124996,0.17105 -1.834659,0 -1.956987,-1.76133 -1.956987,-3.62045 0,-1.51665 0.09766,-5.6015 0.171049,-6.28644 h 0.856279 c 0.318007,0 1.174216,0.0241 1.736845,0.0486 -0.02446,-0.0734 -0.02481,-0.19532 -0.02481,-0.41548 0,-0.0734 3.42e-4,-0.514 0.02481,-0.61185 -0.709402,0 -1.932647,0.0734 -2.593124,0.0734 0.07339,-1.36988 0.09801,-2.34842 0.195854,-3.62045 z m 26.78958,0 -2.030368,0.85628 0.09819,2.73988 c -0.269083,0 -0.734252,10e-6 -1.614888,-0.0734 0.02446,0.17124 0.04909,0.31814 0.04909,0.48938 0,0.19569 0.02429,0.29315 -0.04909,0.56224 0.269083,-0.0245 0.80729,-0.0486 1.663464,-0.0486 -0.02446,3.64486 -0.171049,6.48221 -0.171049,7.583 0,2.07928 1.002709,3.10679 3.008611,3.10679 0.58709,0 1.27205,-0.14675 1.8836,-0.3669 v -0.58705 c -0.29354,0.0978 -0.75806,0.17105 -1.12499,0.17105 -1.83466,0 -1.95699,-1.76133 -1.95699,-3.62045 0,-1.51665 0.0977,-5.6015 0.17105,-6.28644 h 0.85628 c 0.318,0 1.17421,0.0241 1.73684,0.0486 -0.0245,-0.0734 -0.0243,-0.19532 -0.0243,-0.41548 0,-0.0734 -1.7e-4,-0.514 0.0243,-0.61185 -0.7094,0 -1.93264,0.0734 -2.59312,0.0734 0.0734,-1.36988 0.098,-2.34842 0.19585,-3.62045 z m -212.14416,1.079 c -10.87361,0 -17.51883,7.02273 -17.51883,19.40657 0,12.08179 7.32457,19.10426 18.42472,19.10426 4.53067,0 8.15542,-0.90586 11.402405,-3.39772 l 1.661397,-4.22869 -0.906405,-0.67954 c -2.718407,2.34084 -5.889797,3.39772 -9.287807,3.39772 -6.41845,0 -10.11824,-5.28558 -10.11824,-14.34692 h 21.671542 c 0.07551,-0.22654 0.07545,-1.43488 0.07545,-2.2655 0,-10.94912 -5.663282,-16.99018 -15.404232,-16.99018 z m 67.665639,0 c -4.832716,0 -9.967405,1.88798 -14.196032,5.28599 l 0.981335,4.53047 h 0.52865 c 1.585735,-2.18983 5.73897,-4.15272 9.061462,-4.15272 4.304139,0 7.24917,2.71804 7.24917,6.56911 0,2.34085 -0.453305,3.32282 -8.306469,5.13509 -9.665434,2.18982 -12.081434,5.9652 -12.081434,11.25099 0,5.73885 4.077294,9.8919 10.797791,9.8919 3.851071,0 6.871518,-1.58574 9.816455,-5.51232 1.208179,3.398 3.473674,5.51232 7.173722,5.51232 2.416359,0 4.303971,-0.60392 6.946863,-2.03863 v -1.8123 h -0.377238 c -3.398004,0 -4.077787,-1.2837 -4.077787,-5.51232 0,-0.60409 0.226343,-14.12056 0.226343,-16.61242 0,-8.7593 -5.285576,-12.53516 -13.742831,-12.53516 z m 91.903435,1.95441 c -3.547007,0 -5.601726,2.39712 -5.601726,6.40891 0,3.35131 2.519302,5.77329 5.919536,5.77329 1.296492,0 2.837796,-0.51393 4.109826,-1.49242 l 0.146761,-1.19837 -0.122473,-0.0734 c -0.954022,1.05187 -2.445747,1.73684 -3.693314,1.73684 -2.446212,0 -4.207496,-1.63928 -4.207496,-4.67258 0,-0.0734 -1.74e-4,-0.41564 0.02429,-0.53795 1.247568,-0.0245 2.470558,-0.0734 3.644739,-0.0734 1.73681,0 3.326813,0.0489 4.79454,0.0734 l 0.04909,-0.51367 v -0.41599 c 0,-3.03331 -1.932623,-5.01468 -5.063773,-5.01468 z m 14.800647,0 c -1.761273,0 -2.984071,0.80707 -3.889169,2.20141 h -0.04909 c 0,-0.58709 0.04892,-1.54113 0.07338,-1.95698 -0.415856,0.0734 -0.733614,0.12247 -0.978235,0.12247 -0.318007,0 -0.685369,-0.0246 -1.101224,-0.12247 0.12231,1.27203 0.195853,2.61781 0.195853,4.08553 v 3.30213 c 0,0.97848 -1.57e-4,2.76457 -0.195853,4.30568 0.391393,-0.0734 0.734293,-0.12247 1.101224,-0.12247 0.366932,0 0.709315,0.0491 1.100708,0.12247 -0.12231,-1.1008 -0.195853,-2.76444 -0.195853,-3.81631 v -2.93522 c 0,-2.54406 1.12517,-3.91397 3.277836,-3.91397 1.785734,0 2.690792,1.56529 2.690792,3.59565 v 1.8836 c 0,1.59004 -0.171049,3.79191 -0.171049,5.18625 0.391393,-0.0978 0.685032,-0.12247 1.003039,-0.12247 0.318008,0 0.611472,0.0246 1.027328,0.12247 0,-0.44032 -0.04909,-0.88074 -0.04909,-3.03341 0,-1.85912 0.09819,-3.2779 0.09819,-4.5744 0,-2.93545 -1.492566,-4.32996 -3.938777,-4.32996 z m 28.232902,0 c -2.446212,0 -4.060734,1.44331 -4.060734,3.69383 0,2.15266 1.443496,2.73983 3.596162,3.32693 1.467727,0.41585 2.177129,1.00278 2.177129,2.05465 0,1.36988 -1.003104,2.20142 -2.372982,2.20142 -1.14972,0 -2.250468,-0.73373 -2.764173,-1.68776 h -0.293522 c 0,0.3914 -0.195488,1.19885 -0.464571,1.78594 0.880636,0.48924 1.761197,0.80719 3.131075,0.80719 2.666371,0 4.427637,-1.90826 4.427637,-3.88969 0,-2.25051 -1.663302,-2.66645 -3.718119,-3.25355 -1.394341,-0.39139 -2.055172,-1.00261 -2.055172,-2.07894 0,-1.24757 0.92974,-2.05465 2.07946,-2.05465 0.978484,0 1.834832,0.56216 2.15284,1.51618 h 0.293522 c 0.02446,-0.26908 0.269037,-1.14975 0.587044,-1.73684 -0.318007,-0.0734 -1.468029,-0.68471 -2.715596,-0.68471 z m 52.723397,0 c -1.17418,0 -2.29953,0.88042 -3.25355,2.64169 l -0.0491,-0.0243 c 0,-0.48925 3.4e-4,-0.88072 0.0248,-1.1498 l 0.0977,-1.22318 c -0.36693,0.0734 -0.68469,0.12247 -0.97823,0.12247 -0.29355,0 -0.56307,-0.0246 -1.02785,-0.12247 0.0734,0.73386 0.0982,2.56858 0.0982,3.62045 v 5.45496 c 0,1.14972 -0.0248,1.95745 -0.0982,2.61793 0.3914,-0.0734 0.70984,-0.12247 1.02785,-0.12247 0.29354,0 0.6113,0.0491 0.97823,0.12247 -0.0734,-0.80725 -0.0977,-1.93258 -0.0977,-3.40031 v -3.32693 c 0,-1.88358 0.92937,-3.35122 2.49494,-3.35122 0.41586,0 0.92981,0.12211 1.19889,0.39119 l 0.17105,-0.12247 v -0.3421 c 0,-1.05187 0.0977,-1.46794 0.17105,-1.63917 -0.29354,-0.0978 -0.46455,-0.14676 -0.75809,-0.14676 z m 8.07393,0 c -1.56558,0 -2.66675,0.46501 -3.93878,1.41903 v 1.27176 h 0.26923 c 0.61155,-1.07634 1.80995,-1.66347 3.08198,-1.66347 1.76128,0 2.69131,1.12553 2.69131,3.0825 0,0.78279 -0.17149,0.9541 -1.12551,1.22318 -0.9051,0.26909 -1.95691,0.36655 -2.91093,0.56224 -1.95697,0.3914 -3.0825,1.4921 -3.0825,3.27784 0,1.78573 1.56566,3.00912 3.25355,3.00912 1.49218,0 2.47071,-0.41606 3.84059,-1.78594 0.12231,0.97848 0.78265,1.5167 1.68775,1.5167 0.61155,0 1.1744,-0.17138 1.5658,-0.34261 v -0.53795 c -0.22016,0.0978 -0.34243,0.0977 -0.51367,0.0977 -0.85617,0 -0.95394,-0.66033 -0.95394,-1.9079 0,-1.85912 0.0977,-3.88921 0.0977,-5.55263 0,-2.3239 -1.68757,-3.66954 -3.96254,-3.66954 z m -71.684001,0.24443 c 0.12231,1.27203 0.195853,2.61781 0.195853,4.08553 v 3.30213 c 0,0.97848 -1.57e-4,2.76457 -0.195853,4.30568 0.391393,-0.0734 0.733776,-0.12247 1.100708,-0.12247 0.318007,0 0.684852,0.0491 1.100708,0.12247 -0.122311,-1.24757 -0.195337,-2.66655 -0.195337,-4.32997 v -3.03341 c 0,-1.05187 0.07303,-3.22917 0.195337,-4.32996 -0.415856,0.0978 -0.733777,0.12247 -1.100708,0.12247 -0.318008,0 -0.684853,-0.0246 -1.100708,-0.12247 z m -32.097783,0.53846 c 1.981431,0 2.98414,1.41864 3.008602,4.23179 -0.954022,0 -2.397374,0.0734 -3.253548,0.0734 -0.391394,0 -2.225629,-0.0734 -3.179651,-0.0734 0.269083,-2.64191 1.541014,-4.23179 3.424597,-4.23179 z m -159.919956,0.66095 c 3.54903,0 5.36124,3.92642 5.58777,12.45918 h -11.62874 c 0.30204,-8.53276 2.64297,-12.45918 6.04097,-12.45918 z m 285.74432,2.00556 c 1.49219,2.07928 2.93526,3.91381 4.59868,5.89524 -1.24756,1.24757 -2.37269,1.76114 -3.86488,1.76114 -2.07928,0 -3.59564,-1.63887 -3.59564,-3.4246 0,-1.66342 0.70917,-2.93529 2.86184,-4.23178 z m -19.93884,2.32389 -0.0982,3.66902 c -0.68494,1.1008 -1.81032,1.71256 -2.88665,1.71256 -1.17418,0 -2.12803,-0.88062 -2.12803,-2.32389 0,-1.34542 0.83198,-2.20155 3.0825,-2.61741 1.17418,-0.22016 1.8102,-0.3669 2.03036,-0.44028 z m -194.062571,10.16837 c -0.07551,2.7184 -0.07545,5.58832 -0.07545,8.00468 0,4.83271 -2.26528,7.40006 -5.587773,7.40006 -2.642892,0 -4.30413,-2.19028 -4.30413,-5.58829 0,-2.56738 0.301734,-6.26734 5.889563,-8.07961 1.510224,-0.52858 3.549209,-1.35929 4.077787,-1.73684 z m 156.971811,1.77612 c -1.00294,0 -2.76444,0.68486 -3.74292,3.13107 -0.48924,1.24757 -0.83182,2.42179 -0.85628,3.91398 l -1.76113,-0.0243 c 0.0245,0.19569 0.0491,0.31814 0.0491,0.48937 0,0.17124 0.0243,0.2687 -0.0491,0.48886 0.66048,-0.0245 1.1985,-0.0734 1.76113,-0.0734 0,3.81609 2e-5,7.11849 -0.22014,10.6655 0.39139,-0.0734 0.70949,-0.12196 1.07642,-0.12196 0.36693,0 0.6852,0.0486 1.05213,0.12196 -0.0734,-2.76422 -0.0982,-5.43058 -0.0982,-8.78189 v -1.88361 c 0.68494,0 1.46787,0.0489 2.51974,0.0734 -0.0245,-0.19569 -0.0491,-0.36654 -0.0491,-0.56224 0,-0.17123 0.0246,-0.24476 0.0491,-0.41599 -0.31801,0 -0.97863,0.0243 -2.51974,0.0243 l -0.0243,-0.17105 c -0.0734,-0.46478 -0.26924,-2.1037 -0.26924,-2.6908 0,-1.49218 0.73405,-2.44636 2.00608,-2.44636 0.51371,0 0.95375,0.12228 1.34514,0.3669 l 0.14676,-0.0734 c 0,-0.7094 0.0737,-1.19866 0.0982,-1.95698 -0.12231,-0.0245 -0.31797,-0.0734 -0.51367,-0.0734 z m -35.351327,0.0734 c 0.195697,1.98143 0.195337,5.6752 0.195337,6.67814 v 5.16145 c 0,0.97848 3.6e-4,4.74563 -0.195337,6.67814 0.391394,-0.0734 0.733776,-0.12196 1.100708,-0.12196 0.366932,0 0.709314,0.0486 1.100708,0.12196 -0.122311,-1.05187 -0.195854,-5.01472 -0.195854,-6.67814 v -5.16145 c 0,-1.63896 0.07354,-5.62627 0.195854,-6.67814 -0.391394,0.0734 -0.733776,0.12247 -1.100708,0.12247 -0.366932,0 -0.709314,-0.0491 -1.100708,-0.12247 z m 8.024833,0 c 0.195697,1.98143 0.195337,5.6752 0.195337,6.67814 v 5.16145 c 0,0.97848 3.6e-4,4.74563 -0.195337,6.67814 0.391394,-0.0734 0.733776,-0.12196 1.100708,-0.12196 0.366932,0 0.709314,0.0486 1.100708,0.12196 -0.122311,-1.05187 -0.195854,-5.01472 -0.195854,-6.67814 v -5.16145 c 0,-1.63896 0.07354,-5.62627 0.195854,-6.67814 -0.391394,0.0734 -0.733776,0.12247 -1.100708,0.12247 -0.366932,0 -0.709314,-0.0491 -1.100708,-0.12247 z m 79.265444,0 c 0.1957,1.98143 0.19586,5.6752 0.19586,6.67814 v 5.16145 c 0,0.97848 -1.6e-4,4.74563 -0.19586,6.67814 0.3914,-0.0734 0.73378,-0.12196 1.10071,-0.12196 0.36693,0 0.70931,0.0486 1.10071,0.12196 -0.12231,-1.05187 -0.19534,-5.01472 -0.19534,-6.67814 v -5.16145 c 0,-1.63896 0.073,-5.62627 0.19534,-6.67814 -0.3914,0.0734 -0.73378,0.12247 -1.10071,0.12247 -0.36693,0 -0.70931,-0.0491 -1.10071,-0.12247 z m -143.949351,1.32085 c -0.489242,4.77011 -1.370035,10.81227 -2.372982,17.19688 0.366932,-0.0978 0.562733,-0.12196 0.856279,-0.12196 0.293545,0 0.48883,0.0241 0.855761,0.12196 0,-1.73681 0.318432,-5.65027 1.174606,-12.62197 h 0.04858 c 2.177128,4.40318 4.329985,8.36592 6.286954,12.50001 h 0.220142 c 1.492189,-3.25346 2.519435,-5.28368 6.408911,-12.50001 h 0.04909 c 0.391393,3.229 0.880369,8.61018 1.198376,12.62197 0.171235,-0.0734 0.685021,-0.12196 1.149801,-0.12196 0.391394,0 0.733944,0.0241 1.1498,0.12196 -0.58709,-4.25641 -1.296161,-10.93458 -2.005562,-17.19688 h -0.318327 l -4.451924,8.26823 c -1.174182,2.15266 -2.299561,4.23205 -2.813265,5.21053 -3.131151,-5.7486 -4.868095,-8.97773 -7.020761,-13.47876 z m 49.734949,0 c -0.660477,0 -1.247469,0.53858 -1.247469,1.24798 0,0.68494 0.56253,1.24747 1.247469,1.24747 0.684939,0 1.247469,-0.56253 1.247469,-1.24747 0,-0.7094 -0.586992,-1.24798 -1.247469,-1.24798 z m 73.835282,0 c -0.66047,0 -1.24798,0.53858 -1.24798,1.24798 0,0.68494 0.56304,1.24747 1.24798,1.24747 0.68494,0 1.24747,-0.56253 1.24747,-1.24747 0,-0.7094 -0.58699,-1.24798 -1.24747,-1.24798 z m -98.104085,5.25962 c -1.565575,0 -2.666231,0.46502 -3.938261,1.41904 v 1.27176 h 0.268717 c 0.611553,-1.07634 1.81047,-1.66347 3.0825,-1.66347 1.761272,0 2.690791,1.12553 2.690791,3.0825 0,0.78279 -0.17149,0.95358 -1.125512,1.22267 -0.905099,0.26908 -1.956911,0.36706 -2.910934,0.56275 -1.956969,0.3914 -3.081982,1.4921 -3.081982,3.27784 0,1.78573 1.565662,3.00912 3.253548,3.00912 1.492189,0 2.470197,-0.41606 3.840076,-1.78594 0.12231,0.97848 0.783171,1.5167 1.688269,1.5167 0.611553,0 1.173885,-0.17138 1.565279,-0.34261 v -0.53795 c -0.220159,0.0978 -0.342429,0.0977 -0.513664,0.0977 -0.856174,0 -0.953947,-0.66032 -0.953947,-1.90789 0,-1.85912 0.09767,-3.88921 0.09767,-5.55263 0,-2.3239 -1.687573,-3.66955 -3.962549,-3.66955 z m 51.718805,0 c -2.470672,0 -5.919534,1.2476 -5.919534,6.23787 0,3.7427 2.543933,5.94434 5.968624,5.94434 3.25347,0 5.91954,-2.05486 5.91954,-6.0911 0,-3.91394 -2.54393,-6.09111 -5.96863,-6.09111 z m 22.11648,0 c -1.56557,0 -2.66675,0.46502 -3.93878,1.41904 v 1.27176 h 0.26924 c 0.61155,-1.07634 1.80995,-1.66347 3.08198,-1.66347 1.76127,0 2.69131,1.12553 2.69131,3.0825 0,0.78279 -0.17149,0.95358 -1.12551,1.22267 -0.9051,0.26908 -1.95691,0.36706 -2.91094,0.56275 -1.95697,0.3914 -3.0825,1.4921 -3.0825,3.27784 0,1.78573 1.56567,3.00912 3.25355,3.00912 1.49219,0 2.47072,-0.41606 3.84059,-1.78594 0.12231,0.97848 0.78266,1.5167 1.68776,1.5167 0.61155,0 1.1744,-0.17138 1.56579,-0.34261 v -0.53795 c -0.22016,0.0978 -0.34243,0.0977 -0.51366,0.0977 -0.85618,0 -0.95395,-0.66032 -0.95395,-1.90789 0,-1.85912 0.0977,-3.88921 0.0977,-5.55263 0,-2.3239 -1.68757,-3.66955 -3.96255,-3.66955 z m 14.67818,0 c -3.37578,0 -6.23787,2.07932 -6.23787,6.09111 0,3.81609 2.49501,6.0911 5.96863,6.0911 1.29649,0 2.81317,-0.5384 4.06073,-1.49242 0.0245,-0.48924 0.0734,-0.80698 0.14677,-1.19838 l -0.12196,-0.0734 c -0.95402,1.1008 -2.51982,1.73685 -3.66954,1.73685 -2.73976,0 -4.23179,-1.66337 -4.23179,-5.08806 0,-3.35131 1.46775,-5.28392 4.13412,-5.28392 1.27203,0 2.44596,0.70925 3.15536,1.9079 h 0.19585 c 0.12231,-0.58709 0.3178,-1.05175 0.53796,-1.61438 -0.66048,-0.58709 -2.2993,-1.07642 -3.93826,-1.07642 z m 20.25716,0 c -1.56558,0 -2.66623,0.46502 -3.93826,1.41904 v 1.27176 h 0.26871 c 0.61156,-1.07634 1.81047,-1.66347 3.0825,-1.66347 1.76127,0 2.69079,1.12553 2.69079,3.0825 0,0.78279 -0.17149,0.95358 -1.12551,1.22267 -0.9051,0.26908 -1.95691,0.36706 -2.91093,0.56275 -1.95697,0.3914 -3.08198,1.4921 -3.08198,3.27784 0,1.78573 1.56566,3.00912 3.25354,3.00912 1.49219,0 2.47072,-0.41606 3.8406,-1.78594 0.12231,0.97848 0.78265,1.5167 1.68775,1.5167 0.61155,0 1.17388,-0.17138 1.56528,-0.34261 v -0.53795 c -0.22016,0.0978 -0.34243,0.0977 -0.51367,0.0977 -0.85617,0 -0.95394,-0.66032 -0.95394,-1.90789 0,-1.85912 0.0982,-3.88921 0.0982,-5.55263 0,-2.3239 -1.68809,-3.66955 -3.96306,-3.66955 z m -100.721504,0.24443 c 1.467727,1.85912 2.935442,3.81648 4.501017,5.96915 -1.663424,2.15266 -2.984192,3.8401 -4.525305,5.72368 0.293545,-0.0734 0.562391,-0.12196 0.831474,-0.12196 0.269083,0 0.51364,0.0486 0.807186,0.12196 0.782787,-1.17418 2.177197,-3.2286 3.473689,-4.98988 1.174182,1.66343 2.201666,3.13076 3.40031,4.98988 0.391393,-0.0734 0.831613,-0.12196 1.247469,-0.12196 0.366931,0 0.782689,0.0486 1.247469,0.12196 -1.687886,-2.17713 -3.253432,-4.25624 -4.721159,-6.40891 l 2.15284,-2.56832 c 0.684939,-0.80725 1.492003,-1.76157 2.348177,-2.7156 -0.293545,0.0734 -0.56239,0.12248 -0.831474,0.12248 -0.293545,0 -0.489346,-0.0246 -0.856278,-0.12248 -1.27203,1.83466 -2.323634,3.20452 -3.375505,4.5744 -1.076333,-1.46772 -2.128302,-2.98436 -3.106787,-4.5744 -0.513704,0.0978 -0.880705,0.12248 -1.296561,0.12248 -0.415856,0 -0.782858,-0.0246 -1.296562,-0.12248 z m 15.118974,0 c 0.12231,1.27203 0.195337,2.61782 0.195337,4.08554 v 3.30213 c 0,0.97848 3.6e-4,2.76405 -0.195337,4.30516 0.391394,-0.0734 0.733776,-0.12196 1.100708,-0.12196 0.318007,0 0.684852,0.0486 1.100708,0.12196 -0.122311,-1.24757 -0.195854,-2.66603 -0.195854,-4.32945 v -3.03341 c 0,-1.05187 0.07354,-3.22917 0.195854,-4.32997 -0.415856,0.0978 -0.733777,0.12248 -1.100708,0.12248 -0.318008,0 -0.684852,-0.0246 -1.100708,-0.12248 z m 73.83477,0 c 0.12231,1.27203 0.19585,2.61782 0.19585,4.08554 v 3.30213 c 0,0.97848 -1.5e-4,2.76405 -0.19585,4.30516 0.39139,-0.0734 0.73429,-0.12196 1.10122,-0.12196 0.31801,0 0.68486,0.0486 1.10071,0.12196 -0.12231,-1.24757 -0.19585,-2.66603 -0.19585,-4.32945 v -3.03341 c 0,-1.05187 0.0735,-3.22917 0.19585,-4.32997 -0.41585,0.0978 -0.73377,0.12248 -1.10071,0.12248 -0.318,0 -0.68536,-0.0246 -1.10122,-0.12248 z m -45.28406,0.53847 c 2.54406,0 3.81631,1.90797 3.81631,5.30821 0,3.42469 -1.32135,5.3082 -3.79202,5.3082 -2.446212,0 -3.7915,-1.88351 -3.7915,-5.3082 0,-3.44916 1.321,-5.30821 3.76721,-5.30821 z m -49.615058,4.9904 -0.09819,3.66902 c -0.684939,1.1008 -1.809796,1.71256 -2.886129,1.71256 -1.174181,0 -2.128552,-0.88063 -2.128552,-2.32389 0,-1.34542 0.831985,-2.20156 3.082499,-2.61741 1.174182,-0.22016 1.810208,-0.3669 2.030367,-0.44028 z m 73.835288,0 -0.0982,3.66902 c -0.68494,1.1008 -1.81031,1.71256 -2.88664,1.71256 -1.17418,0 -2.12804,-0.88063 -2.12804,-2.32389 0,-1.34542 0.83199,-2.20156 3.0825,-2.61741 1.17418,-0.22016 1.81021,-0.3669 2.03037,-0.44028 z m 34.93533,0 -0.0977,3.66902 c -0.68494,1.1008 -1.81032,1.71256 -2.88665,1.71256 -1.17418,0 -2.12855,-0.88063 -2.12855,-2.32389 0,-1.34542 0.83198,-2.20156 3.0825,-2.61741 1.17418,-0.22016 1.81021,-0.3669 2.03036,-0.44028 z m -295.6233,23.67504 c 0.37756,11.93077 0.6041,16.23475 0.6041,32.69619 0,8.15521 -0.22654,15.63088 -0.6041,24.46569 1.2837,-0.30204 3.54891,-0.37775 5.66323,-0.37775 2.18982,0 4.37952,0.0757 5.66322,0.37775 -0.37756,-8.68379 -0.6041,-16.76347 -0.6041,-28.24117 0,-12.38384 0.22654,-20.16141 0.6041,-28.92071 -1.2837,0.22653 -3.4734,0.37723 -5.66322,0.37723 -2.11432,0 -4.37953,-0.1507 -5.66323,-0.37723 z m 23.94066,0 c 0.60409,10.64708 0.6041,16.23475 0.6041,32.69619 0,8.15521 -0.22654,15.63088 -0.6041,24.46569 1.28369,-0.22653 3.4734,-0.37775 5.66322,-0.37775 2.11432,0 4.38005,0.15122 5.66374,0.37775 -0.377556,-3.02045 -0.604098,-10.49592 -0.604098,-19.17971 0,-4.98374 0.830257,-11.70419 6.569108,-11.70419 3.624538,0 6.19187,2.26501 6.19187,9.58959 0,7.62664 -0.150839,15.55546 -0.83044,21.29431 1.283691,-0.22653 3.548907,-0.37775 5.66322,-0.37775 2.189825,0 4.228508,0.15122 5.663221,0.37775 -0.226534,-4.00209 -0.377238,-8.07971 -0.377238,-11.02465 0,-2.94493 0.30179,-9.5897 0.30179,-12.53463 0,-9.89197 -4.379609,-13.96969 -11.704195,-13.96969 -4.832717,0 -8.683549,2.49195 -11.326441,6.64507 l -0.150895,-0.15141 c 0,-8.98584 0.226542,-16.23461 0.604098,-26.12657 -1.28369,0.22653 -3.54942,0.37723 -5.66374,0.37723 -2.18982,0 -4.37953,-0.1507 -5.66322,-0.37723 z m 131.174425,0.37723 c -3.322493,0 -5.965528,2.64304 -5.965528,5.96553 0,3.32249 2.643035,5.96553 5.965528,5.96553 3.322493,0 5.96501,-2.64304 5.96501,-5.96553 0,-3.32249 -2.642517,-5.96553 -5.96501,-5.96553 z m 110.710555,0 c -3.32249,0 -5.96553,2.64304 -5.96553,5.96553 0,3.32249 2.64304,5.96553 5.96553,5.96553 3.32249,0 5.96553,-2.64304 5.96553,-5.96553 0,-3.32249 -2.64304,-5.96553 -5.96553,-5.96553 z m -306.75647,4.68189 c 0.37756,5.66334 0.6041,13.81867 0.6041,19.48201 v 13.13874 c 0,5.58783 -0.22654,13.96969 -0.6041,19.48201 4.22863,-0.37755 9.96736,-0.37775 15.47968,-0.37775 4.30413,0 9.21267,0.15122 13.74334,0.37775 -0.22653,-1.43471 -0.3023,-1.81212 -0.3023,-3.24683 0,-0.83062 0.0758,-1.66148 0.3023,-3.39824 -5.81436,0.6796 -11.47812,0.98185 -17.29248,0.98185 -0.22654,-2.64289 -0.22634,-7.32484 -0.22634,-9.51466 l 0.0754,-9.5896 c 5.73885,0 11.10018,0.30199 17.14108,0.67955 -0.22654,-0.83063 -0.37776,-2.26532 -0.37776,-3.09594 0,-0.98164 0.0757,-1.66148 0.37776,-3.39824 -6.0409,0.30204 -11.62876,0.52859 -17.14108,0.6041 0,-4.22863 2e-4,-11.47779 0.37776,-16.46153 0.6796,0 4.83251,0.15122 8.8346,0.37775 l 8.23102,0.52865 c -0.22653,-1.73675 -0.3023,-2.56762 -0.3023,-3.39824 0,-1.20818 0.0758,-1.73667 0.3023,-3.17138 -2.18982,0.22653 -6.79608,0.37775 -15.25333,0.37775 -2.7184,0 -5.13492,-0.0759 -7.17372,-0.15141 z M -6.9621701,930.4997 c -7.4000979,0 -13.3655929,4.30423 -13.3655929,12.15739 0,4.98374 2.265153,8.90997 10.6468958,12.08144 4.908228,2.0388 6.72052,3.24738 6.72052,5.66373 0,2.34085 -2.2653434,4.30413 -5.512325,4.30413 -4.4551608,0 -7.3998268,-2.03875 -8.9100508,-6.19187 h -1.88774 c -0.226533,2.71841 -0.528658,4.90781 -1.132747,7.24866 3.020448,2.11431 7.022548,3.24734 10.4205524,3.24734 8.1552096,0 14.5737875,-4.75737 14.5737875,-12.68604 0,-5.13476 -2.0389524,-8.83497 -11.4778524,-12.08195 -5.2102725,-1.81227 -6.3432825,-3.62455 -6.3432825,-5.51233 0,-2.64289 2.265471,-4.37958 5.3614303,-4.37958 3.8510712,0 6.5693783,2.64272 7.47551266,6.34277 H 1.7215376 c 0.3020448,-2.18983 0.9061581,-4.60575 1.8122925,-6.64456 -3.39800405,-2.34084 -6.4939066,-3.54913 -10.4960002,-3.54913 z m 68.4960771,0 c -4.832716,0 -8.683938,2.41644 -11.477852,6.64507 H 49.90516 l 0.30179,-5.66374 c -3.549026,0.30205 -4.60619,0.37776 -5.512325,0.37776 -0.981645,0 -3.473133,-0.15122 -5.360913,-0.37776 0.377556,5.58783 0.604098,7.17403 0.604098,20.91707 0,3.92658 -0.07552,9.58968 -0.604098,15.63057 2.114314,-0.22653 3.548907,-0.37775 5.66322,-0.37775 2.114314,0 3.624418,0.15122 5.66322,0.37775 -0.528578,-5.05925 -0.604097,-10.34496 -0.604097,-19.10426 0,-6.64498 1.434863,-11.77964 6.569625,-11.77964 3.624537,0 6.19187,2.41597 6.19187,9.66504 0,7.62663 -0.15084,15.48001 -0.83044,21.21886 1.28369,-0.22653 3.548906,-0.37775 5.66322,-0.37775 2.189825,0 4.37953,0.15122 5.66322,0.37775 -0.226533,-3.17147 -0.377755,-8.07971 -0.377755,-11.02465 0,-2.94493 0.302308,-9.5897 0.302308,-12.53463 0,-9.89197 -4.379609,-13.96969 -11.704196,-13.96969 z m 110.710553,0 c -4.83271,0 -8.68394,2.41644 -11.47785,6.64507 h -0.1509 l 0.30231,-5.66374 c -3.54902,0.30205 -4.60619,0.37776 -5.51232,0.37776 -0.98165,0 -3.47365,-0.15122 -5.36143,-0.37776 0.37755,5.58783 0.60409,7.17403 0.60409,20.91707 0,3.92658 -0.0755,9.58968 -0.60409,15.63057 2.11431,-0.22653 3.5489,-0.37775 5.66322,-0.37775 2.11431,0 3.62442,0.15122 5.66322,0.37775 -0.52858,-5.05925 -0.6041,-10.34496 -0.6041,-19.10426 0,-6.64498 1.43486,-11.77964 6.56962,-11.77964 3.62454,0 6.19187,2.41597 6.19187,9.66504 0,7.62663 -0.15083,15.48001 -0.83044,21.21886 1.2837,-0.22653 3.54891,-0.37775 5.66322,-0.37775 2.18983,0 4.37953,0.15122 5.66323,0.37775 -0.22654,-3.17147 -0.37724,-8.07971 -0.37724,-11.02465 0,-2.94493 0.30179,-9.5897 0.30179,-12.53463 0,-9.89197 -4.37961,-13.96969 -11.7042,-13.96969 z m -236.598993,0.98133 c 0.226534,3.92658 0.377755,8.00427 0.377755,10.9492 0,2.18983 -0.302307,8.45762 -0.302307,12.45971 0,9.74094 3.85103,14.12058 11.704195,14.12058 4.832717,0 8.683938,-2.41644 11.477853,-6.64507 h 0.150895 l -0.301791,5.66322 c 3.700049,-0.37755 4.606191,-0.37775 5.512325,-0.37775 0.906135,0 1.887398,2e-4 5.360913,0.37775 -0.604089,-5.4368 -0.604097,-10.42056 -0.604097,-20.8411 0,-4.0021 0.07552,-9.89218 0.604097,-15.70654 -2.038802,0.22654 -3.548906,0.37776 -5.66322,0.37776 -2.114313,0 -3.548906,-0.15122 -5.66322,-0.37776 0.377556,5.3613 0.604098,10.34509 0.604098,18.95337 0,7.62663 -1.736909,11.93105 -6.569625,11.93105 -3.851071,0 -6.19187,-2.49193 -6.19187,-9.74101 0,-7.85316 0.150839,-15.40456 0.83044,-21.14341 -1.283691,0.22654 -3.548907,0.37776 -5.66322,0.37776 -2.189825,0 -4.37953,-0.15122 -5.663221,-0.37776 z m 79.747071,0 c 0.528578,5.81436 0.604097,10.94959 0.604097,16.00884 0,10.64708 -0.226541,14.27137 -0.604097,20.5388 2.340847,-0.30204 3.624934,-0.37775 5.663737,-0.37775 2.114313,0 3.624418,0.0757 5.66322,0.37775 -0.377556,-5.4368 -0.604098,-10.19402 -0.604098,-20.8411 0,-4.0021 0.07552,-9.89218 0.604098,-15.70654 -2.038802,0.22654 -3.548907,0.37776 -5.66322,0.37776 -2.114314,0 -3.549424,-0.15122 -5.663737,-0.37776 z m 65.702449,0 15.026473,36.69854 c -2.944937,6.34294 -5.889546,12.23275 -9.589595,19.70835 1.812269,-0.30204 2.642804,-0.37723 3.171382,-0.37723 0.528579,0 1.661159,0.0752 3.171383,0.37723 2.416358,-6.26742 6.87147,-17.66953 11.1001,-27.71252 l 12.1574,-28.69437 c -1.43472,0.30205 -2.64281,0.37776 -3.17139,0.37776 -0.52858,0 -1.28373,-0.0757 -3.02048,-0.37776 -1.35921,4.75721 -3.47357,10.42073 -8.53282,23.7107 -3.246979,-8.15521 -6.116523,-15.47998 -9.06146,-23.7107 -3.398004,0.30205 -4.606127,0.37776 -5.587773,0.37776 -0.981645,0 -3.17135,-0.0757 -5.66322,-0.37776 z m 45.008623,0 c 0.52858,5.81436 0.6041,10.94959 0.6041,16.00884 0,10.64708 -0.22654,14.27137 -0.6041,20.5388 2.34085,-0.30204 3.62442,-0.37775 5.66322,-0.37775 2.11431,0 3.62442,0.0757 5.66322,0.37775 -0.37756,-5.4368 -0.6041,-10.19402 -0.6041,-20.8411 0,-4.0021 0.0755,-9.89218 0.6041,-15.70654 -2.0388,0.22654 -3.54891,0.37776 -5.66322,0.37776 -2.11431,0 -3.54891,-0.15122 -5.66322,-0.37776 z" /></g></svg>
