<?xml version="1.0" encoding="UTF-8" standalone="no"?>
<!-- Created with Inkscape (http://www.inkscape.org/) -->

<svg
   width="44.685833mm"
   height="10.546674mm"
   viewBox="0 0 44.685832 10.546674"
   version="1.1"
   id="svg1"
   xml:space="preserve"
   inkscape:export-filename="hero_bg.png"
   inkscape:export-xdpi="96"
   inkscape:export-ydpi="96"
   xmlns:inkscape="http://www.inkscape.org/namespaces/inkscape"
   xmlns:sodipodi="http://sodipodi.sourceforge.net/DTD/sodipodi-0.dtd"
   xmlns="http://www.w3.org/2000/svg"
   xmlns:svg="http://www.w3.org/2000/svg"><sodipodi:namedview
     id="namedview1"
     pagecolor="#505050"
     bordercolor="#eeeeee"
     borderopacity="1"
     inkscape:showpageshadow="0"
     inkscape:pageopacity="0"
     inkscape:pagecheckerboard="0"
     inkscape:deskcolor="#505050"
     inkscape:document-units="mm"><inkscape:page
       x="0"
       y="0"
       width="44.685829"
       height="10.546675"
       id="page2"
       margin="0"
       bleed="0" /></sodipodi:namedview><defs
     id="defs1" /><g
     inkscape:label="طبقة 1"
     inkscape:groupmode="layer"
     id="layer1"
     transform="translate(-82.699242,-1143.1653)"><path
       style="fill:#255daa;fill-opacity:1;stroke-width:0.0197927"
       d="m 84.882919,1153.7012 c 0,0 -0.01608,-0.01 -0.03573,-0.013 -0.04573,-0.012 -0.09331,-0.034 -0.11774,-0.056 -0.07019,-0.062 -0.104081,-0.1929 -0.07468,-0.2892 0.01447,-0.048 0.04786,-0.089 0.09715,-0.1217 0.02021,-0.013 0.03674,-0.027 0.03674,-0.03 0,0 -0.0057,-0.013 -0.01262,-0.022 -0.02224,-0.029 -0.03104,-0.067 -0.02781,-0.1178 0.0037,-0.058 0.01472,-0.089 0.04353,-0.1209 0.0127,-0.014 0.02308,-0.028 0.02308,-0.031 0,0 -0.01068,-0.013 -0.02373,-0.022 -0.07321,-0.053 -0.112501,-0.1733 -0.09685,-0.2976 0.01782,-0.1415 0.07874,-0.2141 0.207169,-0.2466 0.08471,-0.021 0.157034,-0.03 0.264283,-0.03 0.09807,2e-4 0.127906,0 0.232129,0.024 0.0139,0 0.08955,0 0.168106,0 0.142878,0 0.171845,0 0.177858,0.019 0.0016,0 2.44e-4,0.033 -0.003,0.064 -0.0044,0.042 -0.0082,0.058 -0.0153,0.065 -0.0052,0 -0.02834,0.012 -0.05145,0.015 -0.02312,0 -0.04421,0.01 -0.04687,0.013 -0.003,0 -0.0021,0.02 0.0023,0.043 0.01344,0.069 0.0072,0.1608 -0.01487,0.2173 -0.03507,0.09 -0.09338,0.1378 -0.201928,0.1654 -0.06702,0.017 -0.218359,0.026 -0.325553,0.019 -0.04176,0 -0.0789,0 -0.08253,0 -0.01023,0 -0.01371,0.026 -0.0073,0.047 0.0088,0.03 0.03578,0.042 0.10038,0.048 0.02855,0 0.0711,0.01 0.09456,0.013 0.02346,0 0.05622,0.01 0.07281,0.01 0.01659,0 0.04991,0 0.07405,0.01 0.02414,0 0.06156,0.01 0.08316,0.011 0.08431,0.01 0.152601,0.035 0.199706,0.08 0.06333,0.06 0.07869,0.1041 0.07874,0.224 2e-5,0.076 -0.0013,0.088 -0.01365,0.1267 -0.009,0.028 -0.0209,0.052 -0.03474,0.07 -0.0449,0.057 -0.07924,0.079 -0.154114,0.1007 -0.02304,0.01 -0.04268,0.013 -0.04364,0.016 -0.0023,0.01 -0.571686,0.01 -0.571686,-2e-4 z m 0.441822,-0.2387 c 0.02147,0 0.041,-0.013 0.04845,-0.019 0.0234,-0.022 0.03001,-0.074 0.01293,-0.1021 -0.0085,-0.014 -0.01541,-0.017 -0.0458,-0.024 -0.04721,-0.011 -0.317127,-0.037 -0.334187,-0.033 -0.0074,0 -0.0213,0.014 -0.03147,0.028 -0.01734,0.024 -0.01818,0.027 -0.0183,0.069 -1.19e-4,0.042 8.73e-4,0.046 0.01434,0.061 0.01274,0.014 0.02011,0.016 0.06153,0.023 0.02588,0 0.0506,0.01 0.05492,0.01 0.02062,0 0.204696,0 0.237587,-0.01 z m -0.105308,-0.7209 c 0.08358,-0.01 0.11007,-0.029 0.116432,-0.083 0.0088,-0.076 -0.01056,-0.1129 -0.06606,-0.125 -0.07387,-0.016 -0.199333,-0.012 -0.239063,0.01 -0.01037,0.01 -0.02327,0.015 -0.02867,0.023 -0.02249,0.03 -0.01868,0.1168 0.0064,0.1434 0.0293,0.031 0.115237,0.045 0.210998,0.034 z m 6.597011,0.6183 c -0.03025,0 -0.0579,-0.01 -0.06145,-0.01 -0.0035,0 -0.02356,-0.01 -0.04449,-0.011 -0.143554,-0.027 -0.236556,-0.1057 -0.282497,-0.2383 -0.02534,-0.073 -0.03242,-0.1316 -0.03233,-0.2672 5.9e-5,-0.1102 0.0016,-0.136 0.01127,-0.1833 0.01703,-0.084 0.0315,-0.1241 0.06051,-0.1692 0.07259,-0.1129 0.173474,-0.1598 0.380421,-0.1769 0.06323,-0.01 0.143792,0 0.195414,0.01 0.01963,0 0.04228,0.01 0.05034,0.01 0.02209,0 0.109326,0.03 0.140263,0.047 0.03511,0.02 0.09052,0.072 0.110857,0.1038 0.04956,0.077 0.07857,0.211 0.07857,0.3623 0,0.2088 -0.04831,0.3547 -0.142301,0.4297 -0.09473,0.076 -0.250156,0.1071 -0.464582,0.094 z m 0.170217,-0.2522 c 0.03494,-0.01 0.06052,-0.03 0.0744,-0.062 0.02605,-0.059 0.03589,-0.2272 0.01987,-0.3399 -0.015,-0.1055 -0.04818,-0.1436 -0.131056,-0.1505 -0.107358,-0.01 -0.172453,0.014 -0.195496,0.068 -0.02421,0.057 -0.03431,0.2322 -0.01939,0.3366 0.01582,0.1106 0.03831,0.1386 0.123372,0.1532 0.03201,0.01 0.09612,0 0.128302,-0.01 z m 9.690729,0.252 c -0.14764,-0.012 -0.26795,-0.063 -0.32403,-0.1373 -0.0479,-0.064 -0.0832,-0.1591 -0.0952,-0.2581 -0.008,-0.069 -0.007,-0.2066 0.002,-0.2723 0.0215,-0.1489 0.0775,-0.2525 0.16857,-0.3118 0.0353,-0.023 0.12784,-0.057 0.1545,-0.057 0.008,0 0.0307,0 0.0503,-0.01 0.13605,-0.028 0.35697,0 0.45726,0.053 0.0187,0.01 0.0508,0.035 0.0713,0.056 0.0295,0.03 0.0422,0.047 0.0614,0.087 0.0466,0.096 0.0625,0.1788 0.0623,0.3247 -1.6e-4,0.1412 -0.017,0.2311 -0.0593,0.3161 -0.0574,0.1155 -0.12624,0.1626 -0.28754,0.1966 -0.0572,0.012 -0.18394,0.017 -0.26184,0.011 z m 0.17302,-0.2535 c 0.0583,-0.02 0.0785,-0.051 0.0941,-0.1424 0.0137,-0.08 0.0136,-0.1704 -2.8e-4,-0.256 -0.0141,-0.087 -0.0287,-0.1134 -0.0757,-0.138 -0.0246,-0.013 -0.0306,-0.014 -0.0995,-0.014 -0.0689,0 -0.0749,0 -0.0995,0.014 -0.0304,0.016 -0.0391,0.025 -0.0547,0.056 -0.0241,0.048 -0.0393,0.2196 -0.0264,0.2968 0.003,0.018 0.008,0.048 0.0105,0.067 0.006,0.038 0.0206,0.073 0.0385,0.089 0.0162,0.014 0.0533,0.031 0.0812,0.035 0.0318,0.01 0.10515,0 0.1318,-0.01 z m 4.83806,0.2534 c -0.0305,0 -0.0581,-0.01 -0.0612,-0.01 -0.003,0 -0.0194,-0.01 -0.0361,-0.01 -0.0838,-0.015 -0.14856,-0.047 -0.19857,-0.097 -0.0583,-0.058 -0.0921,-0.1271 -0.11321,-0.2302 -0.0158,-0.077 -0.0157,-0.2839 1.4e-4,-0.3639 0.0288,-0.146 0.0906,-0.2382 0.19478,-0.2907 0.0379,-0.019 0.09,-0.033 0.17023,-0.047 0.069,-0.012 0.2138,-0.012 0.26872,0 0.0211,0 0.0448,0.01 0.0528,0.01 0.0203,0 0.0969,0.025 0.13142,0.042 0.069,0.035 0.13551,0.1118 0.15422,0.1777 0.002,0.01 0.008,0.025 0.0133,0.039 0.018,0.049 0.0268,0.1 0.031,0.1768 0.0145,0.2699 -0.0413,0.4439 -0.16905,0.5272 -0.0921,0.06 -0.24836,0.086 -0.43843,0.074 z m 0.17775,-0.2542 c 0.039,-0.012 0.0632,-0.037 0.0782,-0.084 0.0264,-0.081 0.0254,-0.2988 -0.002,-0.3767 -0.0252,-0.072 -0.0571,-0.09 -0.16448,-0.089 -0.066,4e-4 -0.0725,0 -0.0979,0.015 -0.0481,0.025 -0.0624,0.055 -0.0757,0.1607 -0.007,0.058 -0.002,0.2231 0.008,0.2645 0.004,0.018 0.009,0.037 0.0107,0.045 0.003,0.015 0.0304,0.045 0.052,0.056 0.044,0.023 0.13186,0.027 0.1913,0.01 z m 7.67279,0.2543 c -0.0303,0 -0.0609,-0.01 -0.0681,-0.01 -0.007,0 -0.0242,-0.01 -0.0377,-0.01 -0.0135,0 -0.0435,-0.01 -0.0666,-0.018 -0.0944,-0.033 -0.1605,-0.093 -0.19524,-0.1759 -0.0449,-0.1077 -0.0588,-0.1922 -0.0553,-0.3368 0.003,-0.1341 0.0198,-0.2132 0.0646,-0.3076 0.0384,-0.081 0.11395,-0.1397 0.21699,-0.1686 0.17234,-0.048 0.41202,-0.036 0.54334,0.028 0.0952,0.046 0.16728,0.1516 0.19148,0.2797 0.0265,0.1405 0.02,0.3348 -0.0149,0.4443 -0.022,0.069 -0.0648,0.1387 -0.10761,0.1754 -0.0875,0.075 -0.2701,0.1129 -0.4709,0.098 z m 0.17594,-0.2544 c 0.0436,-0.013 0.0665,-0.036 0.0814,-0.082 0.0115,-0.036 0.0121,-0.046 0.0121,-0.187 0,-0.1404 -4.8e-4,-0.1514 -0.0118,-0.186 -0.0137,-0.043 -0.0324,-0.065 -0.0679,-0.082 -0.0219,-0.01 -0.0334,-0.012 -0.0981,-0.012 -0.0696,0 -0.0747,0 -0.10078,0.014 -0.0337,0.017 -0.0488,0.039 -0.065,0.095 -0.0113,0.039 -0.0122,0.051 -0.0122,0.1676 -1e-5,0.1165 9.7e-4,0.1291 0.0126,0.1715 0.0192,0.07 0.0472,0.096 0.11573,0.109 0.0323,0.01 0.0985,0 0.13404,-0.01 z m -25.607483,0.2408 c -0.05851,-0.017 -0.101179,-0.042 -0.13734,-0.079 -0.06046,-0.061 -0.08104,-0.1242 -0.08104,-0.2485 0,-0.08 0.0099,-0.1369 0.0299,-0.1737 0.02074,-0.038 0.06911,-0.084 0.107746,-0.1033 0.06227,-0.03 0.0759,-0.032 0.293218,-0.032 0.134593,0 0.201711,0 0.209046,-0.01 0.01,-0.01 0.01053,-0.01 0.0073,-0.045 -0.0051,-0.056 -0.01441,-0.073 -0.04835,-0.085 -0.04017,-0.015 -0.09334,-0.017 -0.234863,-0.011 -0.06913,0 -0.15902,0.01 -0.199766,0.01 h -0.07408 l -0.0087,-0.013 c -0.0051,-0.01 -0.01071,-0.033 -0.01358,-0.061 -0.0027,-0.026 -0.0072,-0.058 -0.01008,-0.07 -0.0093,-0.04 -0.007,-0.066 0.007,-0.075 0.03193,-0.021 0.442033,-0.06 0.547902,-0.052 0.05552,0 0.139449,0.02 0.180166,0.035 0.05741,0.021 0.113622,0.073 0.144246,0.134 0.0063,0.013 0.01639,0.043 0.02252,0.068 0.01071,0.044 0.0112,0.059 0.013,0.4104 0.0018,0.3631 0.0018,0.3651 -0.0089,0.3759 -0.01035,0.01 -0.01564,0.011 -0.124317,0.01 h -0.11351 l -0.0096,-0.017 c -0.0053,-0.01 -0.01239,-0.036 -0.01584,-0.059 -0.0036,-0.025 -0.0091,-0.044 -0.01296,-0.046 -0.0037,0 -0.01991,0.01 -0.0361,0.024 -0.05919,0.054 -0.122341,0.088 -0.205122,0.1085 -0.068,0.017 -0.168291,0.016 -0.227911,0 z m 0.281854,-0.2431 c 0.05061,-0.013 0.10279,-0.038 0.129196,-0.062 l 0.01993,-0.018 v -0.052 c 0,-0.029 -0.0023,-0.053 -0.0052,-0.055 -0.0029,0 -0.06673,0 -0.141896,0 -0.157078,5e-4 -0.16065,0 -0.175203,0.039 -0.01224,0.032 -0.0083,0.1073 0.0066,0.1277 0.02465,0.034 0.0875,0.042 0.166557,0.021 z m 0.956774,0.2435 c -0.09437,-0.03 -0.149763,-0.089 -0.18056,-0.1911 -0.0034,-0.011 -0.0067,-0.1291 -0.0086,-0.3063 l -0.0031,-0.288 h -0.06546 c -0.110035,0 -0.104737,0 -0.104737,-0.1085 0,-0.1135 -0.003,-0.1096 0.08463,-0.1117 0.03554,0 0.06992,0 0.0764,0 h 0.01178 v -0.1246 c 0,-0.099 0.0015,-0.1267 0.0074,-0.1348 0.007,-0.01 0.01496,-0.01 0.154224,-0.01 0.102796,0 0.148578,0 0.152754,0.01 0.0042,0 0.0058,0.042 0.0053,0.1245 -3.9e-4,0.075 0.0015,0.1223 0.005,0.1288 0.0053,0.01 0.01117,0.011 0.125836,0.011 0.11328,0 0.12087,0 0.130736,0.011 0.0097,0.01 0.01047,0.017 0.01047,0.1 0,0.088 -2.12e-4,0.09 -0.01285,0.1021 l -0.01285,0.013 h -0.120124 c -0.104708,0 -0.120533,0 -0.123304,0.01 -0.0042,0.011 -0.004,0.4086 1.78e-4,0.4533 0.0023,0.025 0.0067,0.039 0.01517,0.05 l 0.01187,0.015 h 0.09202 c 0.115978,0 0.109945,0 0.124622,0.092 0.0058,0.037 0.01097,0.083 0.0114,0.1015 l 7.75e-4,0.034 -0.02032,0.01 c -0.01118,0.01 -0.03946,0.013 -0.06284,0.017 -0.02338,0 -0.05313,0.01 -0.06609,0.013 -0.01296,0 -0.06363,0 -0.112591,0 -0.07819,-2e-4 -0.09366,0 -0.127127,-0.013 z m 3.636882,0.01 c -0.01092,0 -0.02751,-0.01 -0.03686,-0.011 -0.01976,0 -0.06773,-0.028 -0.101178,-0.051 -0.04295,-0.03 -0.08171,-0.095 -0.09419,-0.1591 -0.0092,-0.047 -0.0091,-0.1832 2.3e-4,-0.2264 0.01821,-0.085 0.07507,-0.1474 0.164387,-0.1809 0.02824,-0.011 0.04179,-0.011 0.249804,-0.014 h 0.219946 l 0.0016,-0.044 c 0.0014,-0.039 2.15e-4,-0.046 -0.01157,-0.064 -0.0104,-0.015 -0.01885,-0.021 -0.04101,-0.028 -0.04668,-0.014 -0.07947,-0.015 -0.223886,-0.01 -0.298992,0.013 -0.28075,0.013 -0.28953,0 -0.0043,-0.01 -0.01052,-0.034 -0.01391,-0.06 -0.0034,-0.026 -0.0083,-0.063 -0.01095,-0.083 -0.0049,-0.036 -0.0016,-0.054 0.012,-0.066 0.0074,-0.01 0.07098,-0.016 0.166224,-0.027 0.227948,-0.026 0.378615,-0.03 0.46084,-0.014 0.150444,0.03 0.213711,0.081 0.25848,0.2075 0.01666,0.047 0.01907,0.1045 0.01907,0.4526 0,0.3295 -4.83e-4,0.3475 -0.0096,0.3557 -0.0083,0.01 -0.02455,0.01 -0.119282,0.01 -0.08797,0 -0.111879,0 -0.120679,-0.01 -0.01176,-0.01 -0.01976,-0.034 -0.02565,-0.083 -0.0022,-0.018 -0.0066,-0.032 -0.01082,-0.033 -0.0041,0 -0.02279,0.012 -0.0435,0.031 -0.04956,0.046 -0.105731,0.076 -0.186315,0.099 -0.04764,0.014 -0.182794,0.019 -0.21362,0.01 z m 0.248627,-0.2468 c 0.043,-0.01 0.112777,-0.041 0.140283,-0.064 l 0.01819,-0.015 -0.0015,-0.054 c -8.24e-4,-0.03 -0.0024,-0.055 -0.0035,-0.056 -0.0011,0 -0.06395,0 -0.139626,0 -0.147425,0 -0.154715,0 -0.173975,0.028 -0.02242,0.03 -0.01573,0.1288 0.01021,0.1504 0.02527,0.021 0.08613,0.026 0.149991,0.013 z m 0.876187,0.2394 c -0.05508,-0.019 -0.08322,-0.035 -0.116834,-0.071 -0.03699,-0.039 -0.0575,-0.084 -0.06393,-0.1399 -0.003,-0.026 -0.0051,-0.2827 -0.0051,-0.616 -3.9e-5,-0.5652 7.9e-5,-0.5723 0.01043,-0.5827 0.0099,-0.01 0.01745,-0.011 0.148084,-0.011 0.116073,0 0.139432,0 0.149249,0.01 l 0.01164,0.01 2.95e-4,0.543 c 2.22e-4,0.4064 0.0019,0.5475 0.0065,0.5611 0.0036,0.01 0.01388,0.023 0.02404,0.03 0.01583,0.011 0.0241,0.012 0.07497,0.012 0.03145,0 0.06165,0 0.06713,0.01 0.01229,0.01 0.02473,0.047 0.03173,0.102 0.0029,0.023 0.0088,0.055 0.01304,0.072 0.0057,0.022 0.0063,0.033 0.0022,0.041 -0.0076,0.014 -0.03866,0.029 -0.07608,0.037 -0.01719,0 -0.04068,0.01 -0.0522,0.011 -0.01152,0 -0.05747,0 -0.102118,0 -0.07377,-3e-4 -0.08499,0 -0.123078,-0.014 z m 2.262317,0.01 c -0.0086,0 -0.02349,-0.01 -0.03299,-0.01 -0.02754,-0.01 -0.08713,-0.043 -0.111061,-0.07 -0.02609,-0.03 -0.03921,-0.054 -0.05396,-0.1006 -0.01074,-0.034 -0.01093,-0.044 -0.01264,-0.6299 -0.0017,-0.5925 -0.0017,-0.5956 0.0089,-0.6061 0.01013,-0.01 0.01696,-0.011 0.148819,-0.011 0.12391,0 0.139338,0 0.149256,0.01 l 0.01106,0.01 0.0013,0.5475 c 0.0012,0.5177 0.0018,0.5483 0.01075,0.5619 0.01799,0.028 0.0377,0.035 0.0932,0.035 0.02765,0 0.05753,0 0.06639,0.01 0.01849,0.01 0.02734,0.026 0.02734,0.06 0,0.012 0.0036,0.034 0.008,0.049 0.0044,0.015 0.0085,0.046 0.0092,0.07 0.0011,0.04 4.47e-4,0.043 -0.01234,0.053 -0.0074,0.01 -0.03924,0.016 -0.0707,0.023 -0.04712,0.01 -0.07194,0.013 -0.140974,0.013 -0.05701,0 -0.08881,0 -0.0995,-0.01 z m 0.75672,0 c -0.119161,-0.024 -0.178195,-0.052 -0.235708,-0.1091 -0.04388,-0.044 -0.06571,-0.081 -0.08539,-0.1441 -0.03026,-0.097 -0.03166,-0.1077 -0.03379,-0.2482 -0.0018,-0.1204 -9.69e-4,-0.1379 0.0092,-0.1858 0.02707,-0.1282 0.05072,-0.1804 0.107098,-0.2363 0.0757,-0.075 0.153712,-0.1031 0.330865,-0.1186 0.126494,-0.011 0.289336,0.014 0.376458,0.057 0.06835,0.034 0.125395,0.1087 0.150255,0.1965 0.02159,0.076 0.01311,0.186 -0.01922,0.2495 -0.01905,0.037 -0.0671,0.087 -0.09989,0.1028 -0.0566,0.028 -0.07736,0.03 -0.30345,0.034 h -0.209472 l 4.85e-4,0.018 c 8.24e-4,0.031 0.03097,0.087 0.05485,0.1029 0.05006,0.033 0.156927,0.037 0.431013,0.017 0.07061,-0.01 0.08424,0 0.09055,0 0.0081,0.01 0.02335,0.072 0.03317,0.1381 0.0051,0.034 0.005,0.045 -6.79e-4,0.054 -0.0075,0.012 -0.04009,0.028 -0.07788,0.037 -0.01296,0 -0.03535,0.01 -0.04975,0.013 -0.0144,0 -0.03915,0.01 -0.05499,0.011 -0.01584,0 -0.04733,0.01 -0.06997,0.011 -0.06459,0.012 -0.278929,0.01 -0.343742,0 z m 0.279827,-0.6118 c 0.02352,-0.01 0.03434,-0.034 0.03436,-0.08 2e-5,-0.047 -0.01196,-0.077 -0.03538,-0.089 -0.02324,-0.012 -0.06669,-0.019 -0.114987,-0.019 -0.101653,0 -0.145796,0.019 -0.167329,0.074 -0.01199,0.03 -0.02391,0.1004 -0.01914,0.1129 0.0023,0.01 0.02794,0.01 0.145932,0.01 0.08029,0 0.149006,0 0.156542,-0.01 z m 0.809432,0.6103 c -0.106964,-0.022 -0.166555,-0.05 -0.216706,-0.1005 -0.08886,-0.089 -0.129822,-0.2591 -0.117481,-0.4875 0.0074,-0.1372 0.04804,-0.2623 0.105373,-0.3247 0.07136,-0.078 0.156469,-0.1102 0.33355,-0.1277 0.135448,-0.013 0.385118,0.024 0.42786,0.064 0.01395,0.013 0.01483,0.026 0.0047,0.066 -0.0041,0.016 -0.009,0.044 -0.011,0.061 -0.0049,0.042 -0.01666,0.07 -0.03066,0.073 -0.0062,0 -0.09368,0 -0.194484,0 h -0.183288 l -0.02619,0.014 c -0.03403,0.018 -0.0512,0.037 -0.06834,0.074 -0.01715,0.037 -0.02296,0.08 -0.02298,0.1685 -1.5e-5,0.1096 0.01083,0.1629 0.04234,0.2077 0.01655,0.024 0.05483,0.041 0.106578,0.049 0.05999,0.01 0.109006,0.01 0.24844,-4e-4 0.148555,-0.01 0.135813,-0.019 0.151601,0.105 0.01146,0.09 0.0098,0.097 -0.02727,0.1118 -0.01493,0.01 -0.03539,0.013 -0.04547,0.014 -0.01008,0 -0.02283,0.01 -0.02834,0.01 -0.0055,0 -0.03143,0.01 -0.0576,0.012 -0.02618,0 -0.0582,0.01 -0.07116,0.012 -0.01296,0 -0.07777,0 -0.144012,0 -0.103322,-3e-4 -0.128265,0 -0.175433,-0.012 z m 0.986983,0 c -0.0876,-0.029 -0.13475,-0.076 -0.17044,-0.1712 -0.0116,-0.031 -0.0118,-0.036 -0.0139,-0.3233 -0.002,-0.2205 -0.004,-0.292 -0.008,-0.2925 -0.003,-3e-4 -0.03333,-2e-4 -0.06645,5e-4 -0.05896,0 -0.08707,0 -0.09539,-0.017 -0.0022,0 -0.004,-0.045 -0.004,-0.093 -9.9e-5,-0.112 -0.0054,-0.1059 0.09604,-0.1095 h 0.07407 l 0.003,-0.1301 c 0.002,-0.121 0.003,-0.1305 0.0128,-0.1375 0.008,-0.01 0.0374,-0.01 0.14925,-0.01 0.0783,0 0.14251,0 0.14694,0 0.007,0 0.008,0.027 0.0105,0.1348 l 0.003,0.1298 h 0.12742 c 0.11842,0 0.12795,0 0.13485,0.013 0.006,0.01 0.007,0.031 0.007,0.099 -4e-5,0.049 -0.002,0.092 -0.004,0.095 -0.0108,0.016 -0.0292,0.018 -0.1416,0.018 -0.0625,-3e-4 -0.11656,0 -0.12016,-3e-4 -0.005,2e-4 -0.007,0.053 -0.007,0.2454 v 0.245 l 0.0151,0.018 0.0151,0.018 h 0.0921 c 0.11214,0 0.11216,0 0.11671,0.063 0.002,0.021 0.006,0.051 0.01,0.065 0.01,0.036 0.0144,0.079 0.0105,0.091 -0.004,0.011 -0.0471,0.032 -0.0667,0.033 -0.007,0 -0.0343,0 -0.0614,0.011 -0.0384,0.01 -0.0683,0.01 -0.13616,0.01 -0.0796,-3e-4 -0.0905,0 -0.12897,-0.014 z m 3.67902,0.01 c -0.0216,0 -0.077,-0.01 -0.12307,-0.012 -0.0883,-0.01 -0.12108,-0.016 -0.13017,-0.031 -0.004,-0.01 -0.004,-0.033 4.8e-4,-0.091 0.006,-0.076 0.011,-0.1 0.0236,-0.1082 0.003,0 0.0915,0 0.19691,0 0.20345,0 0.32439,0 0.35191,-0.017 0.0393,-0.02 0.0312,-0.073 -0.0141,-0.092 -0.0214,-0.01 -0.0874,-0.029 -0.14085,-0.043 -0.0173,0 -0.0503,-0.013 -0.0733,-0.018 -0.023,-0.01 -0.0662,-0.016 -0.096,-0.024 -0.0891,-0.022 -0.14166,-0.047 -0.19307,-0.094 -0.0477,-0.043 -0.0673,-0.088 -0.0749,-0.1735 -0.0155,-0.1741 0.0394,-0.2742 0.17277,-0.3154 0.10413,-0.032 0.29392,-0.04 0.46607,-0.019 0.0331,0 0.0744,0.01 0.0916,0.01 0.0173,0 0.0479,0 0.0681,0.01 0.0202,0 0.0418,0.01 0.0482,0.01 0.0203,0 0.0375,0.011 0.0409,0.027 0.002,0.01 4.9e-4,0.028 -0.003,0.045 -0.003,0.017 -0.008,0.054 -0.0107,0.083 -0.004,0.04 -0.007,0.054 -0.0141,0.059 -0.007,0.01 -0.0496,0.01 -0.20042,0.01 -0.3352,0 -0.32317,0 -0.33801,0.013 -0.01,0.01 -0.0128,0.018 -0.0127,0.035 9e-5,0.012 0.003,0.026 0.007,0.031 0.008,0.011 0.0615,0.036 0.0758,0.036 0.006,0 0.0205,0 0.0331,0.01 0.0126,0 0.0323,0.01 0.0439,0.013 0.0384,0.01 0.20594,0.052 0.23936,0.063 0.0447,0.015 0.10771,0.049 0.13704,0.074 0.0321,0.028 0.0594,0.075 0.0723,0.1269 0.009,0.034 0.0101,0.053 0.008,0.1051 -0.003,0.073 -0.0117,0.1091 -0.0383,0.1551 -0.0257,0.045 -0.0461,0.066 -0.0807,0.083 -0.0824,0.041 -0.19134,0.058 -0.36718,0.057 -0.0702,-4e-4 -0.14538,0 -0.16698,0 z m 1.69149,0 c -0.0101,0 -0.0337,-0.01 -0.0524,-0.01 -0.065,-0.011 -0.13907,-0.038 -0.18531,-0.068 -0.11117,-0.073 -0.17354,-0.1897 -0.20575,-0.3847 -0.0139,-0.084 -0.0139,-0.4057 -6e-5,-0.4976 0.0343,-0.2269 0.11801,-0.3585 0.27053,-0.4251 0.0217,-0.01 0.0448,-0.017 0.0514,-0.018 0.007,0 0.0206,0 0.0312,-0.01 0.0106,0 0.0394,-0.01 0.064,-0.013 0.14417,-0.017 0.14895,-0.017 0.2277,-0.011 0.1572,0.012 0.19714,0.015 0.23456,0.023 0.0209,0 0.0496,0.01 0.0636,0.011 0.0165,0 0.0298,0.01 0.0377,0.015 0.0114,0.012 0.012,0.015 0.009,0.059 -0.004,0.075 -0.0181,0.1661 -0.0261,0.1744 -0.006,0.01 -0.0408,0.01 -0.23438,0.01 -0.22098,0 -0.22771,0 -0.25112,0.01 -0.0132,0.01 -0.026,0.011 -0.0284,0.011 -0.002,0 -0.0165,0.011 -0.0314,0.024 -0.0676,0.059 -0.0865,0.1437 -0.0866,0.3874 -1.4e-4,0.2789 0.0263,0.3636 0.13006,0.4164 l 0.0258,0.013 0.19377,-3e-4 c 0.10656,-2e-4 0.21781,0 0.24721,0 0.0695,0 0.0724,0 0.0772,0.063 0.002,0.026 0.007,0.07 0.0117,0.1 0.004,0.029 0.007,0.057 0.005,0.061 -0.008,0.021 -0.0614,0.038 -0.1738,0.053 -0.0317,0 -0.0729,0.01 -0.0917,0.013 -0.0414,0.01 -0.28867,0.01 -0.31421,-3e-4 z m 6.17159,3e-4 c -0.0202,0 -0.0755,-0.01 -0.12307,-0.012 -0.0858,-0.01 -0.11656,-0.014 -0.13012,-0.027 -0.0105,-0.01 0.004,-0.1828 0.0169,-0.1953 0.008,-0.01 0.0333,-0.01 0.25075,-0.01 0.2567,-3e-4 0.28817,0 0.31127,-0.025 0.009,-0.01 0.0121,-0.017 0.0121,-0.033 0,-0.018 -0.003,-0.025 -0.0179,-0.038 -0.0171,-0.015 -0.0253,-0.018 -0.0842,-0.035 -0.0144,0 -0.0427,-0.012 -0.0628,-0.018 -0.0202,-0.01 -0.0449,-0.012 -0.055,-0.014 -0.0101,0 -0.0301,-0.01 -0.0445,-0.011 -0.0144,0 -0.0533,-0.014 -0.0864,-0.023 -0.15989,-0.041 -0.23716,-0.1115 -0.25964,-0.2363 -0.0132,-0.073 -0.006,-0.1617 0.017,-0.212 0.0224,-0.049 0.0612,-0.092 0.10006,-0.112 0.0277,-0.014 0.0843,-0.03 0.14518,-0.041 0.0681,-0.012 0.27116,-0.012 0.37005,4e-4 0.0365,0 0.0794,0.01 0.0955,0.01 0.0279,0 0.0941,0.011 0.1351,0.021 0.0119,0 0.0206,0.01 0.0227,0.015 0.004,0.012 -0.007,0.1393 -0.014,0.1688 -0.003,0.015 -0.009,0.021 -0.0191,0.025 -0.009,0 -0.0821,0.01 -0.20004,0 -0.333,0 -0.32314,0 -0.33803,0.014 -0.0159,0.017 -0.0173,0.047 -0.003,0.065 0.009,0.012 0.0193,0.016 0.11323,0.045 0.0144,0 0.0391,0.011 0.055,0.015 0.11524,0.026 0.24056,0.063 0.28194,0.083 0.096,0.047 0.13797,0.097 0.15478,0.1872 0.0209,0.1115 -0.001,0.2289 -0.0552,0.2902 -0.0429,0.049 -0.10028,0.072 -0.22762,0.091 -0.0563,0.01 -0.0918,0.011 -0.19638,0.01 -0.0702,-5e-4 -0.14421,0 -0.16437,0 z m 1.04736,0 c -0.0202,0 -0.0755,-0.01 -0.12306,-0.012 -0.0892,-0.01 -0.12263,-0.015 -0.12898,-0.025 -0.005,-0.01 -0.003,-0.097 0.003,-0.1495 0.007,-0.062 -0.008,-0.058 0.21602,-0.055 0.2115,0 0.3252,0 0.35209,-0.019 0.0185,-0.011 0.0248,-0.034 0.0164,-0.059 -0.007,-0.02 -0.0265,-0.034 -0.0673,-0.045 -0.10015,-0.029 -0.13128,-0.037 -0.21342,-0.056 -0.12407,-0.029 -0.18652,-0.054 -0.23902,-0.096 -0.0383,-0.031 -0.0594,-0.062 -0.0756,-0.1112 -0.0113,-0.034 -0.0127,-0.048 -0.0127,-0.1252 0,-0.079 9.7e-4,-0.09 0.0127,-0.1204 0.0208,-0.056 0.058,-0.1014 0.10058,-0.1234 0.0265,-0.014 0.0886,-0.034 0.10464,-0.034 0.008,0 0.0305,0 0.0501,-0.01 0.0488,-0.012 0.26809,-0.012 0.36383,4e-4 0.0365,0 0.0794,0.01 0.0955,0.01 0.0161,0 0.0475,0 0.0698,0.01 0.0224,0 0.0496,0.01 0.0606,0.011 0.0282,0 0.0324,0.018 0.025,0.081 -0.0129,0.1109 -0.0152,0.1225 -0.0249,0.1298 -0.008,0.01 -0.0468,0.01 -0.2033,0.01 -0.32847,0 -0.32045,0 -0.33539,0.013 -0.009,0.01 -0.0129,0.019 -0.0129,0.031 0,0.033 0.009,0.044 0.0466,0.057 0.041,0.015 0.0865,0.029 0.12623,0.037 0.11216,0.025 0.23949,0.062 0.28194,0.083 0.0918,0.045 0.12798,0.085 0.15084,0.1702 0.0146,0.055 0.0168,0.1364 0.004,0.1767 -0.004,0.014 -0.008,0.03 -0.008,0.036 -9e-5,0.018 -0.0312,0.076 -0.0536,0.1007 -0.0225,0.024 -0.0655,0.049 -0.1083,0.063 -0.0218,0.01 -0.0596,0.014 -0.1497,0.028 -0.0362,0.01 -0.27026,0.01 -0.32469,-2e-4 z m -16.522153,-0.016 c -0.107164,-0.014 -0.189002,-0.074 -0.231991,-0.17 l -0.01407,-0.031 -4e-5,-0.4922 -3.9e-5,-0.4923 0.0127,-0.034 c 0.03483,-0.093 0.105549,-0.1505 0.213417,-0.1725 0.04503,-0.01 0.07201,-0.011 0.177939,-0.011 0.06867,0 0.174349,0 0.234834,0.01 0.06048,0 0.152992,0.01 0.205572,0.01 0.07783,0 0.09718,0.01 0.104139,0.013 0.0077,0.01 0.008,0.019 0.0034,0.1161 -0.0033,0.07 -0.0074,0.1102 -0.01156,0.1153 -0.0055,0.01 -0.04736,0.01 -0.287529,0.01 -0.312788,0 -0.296496,-2e-4 -0.315094,0.038 -0.0089,0.018 -0.01022,0.034 -0.01087,0.1299 -4.1e-4,0.06 3.68e-4,0.1101 0.0017,0.1115 0.0014,0 0.119643,0 0.26285,0 h 0.260378 l 0.01001,0.012 c 0.0091,0.011 0.01001,0.022 0.01001,0.1136 0,0.099 -2.94e-4,0.1015 -0.01164,0.1094 -0.01015,0.01 -0.04455,0.01 -0.269055,0.01 -0.200005,0 -0.258435,0 -0.261985,0.01 -0.0025,0 -0.0034,0.072 -0.0019,0.1516 0.0025,0.137 0.0032,0.1457 0.01365,0.1597 0.01946,0.026 0.03101,0.027 0.317,0.028 0.251363,4e-4 0.265822,0 0.277341,0.01 0.01139,0.01 0.0124,0.015 0.01612,0.09 0.0022,0.044 0.0046,0.092 0.0053,0.1053 7.27e-4,0.014 -0.0015,0.028 -0.0048,0.031 -0.01248,0.013 -0.107503,0.021 -0.297275,0.025 -0.225034,0.01 -0.364081,0.01 -0.408472,-2e-4 z m 20.931933,0 c -0.007,-0.01 -0.008,-0.2103 -0.008,-2.1538 0,-1.9334 9.7e-4,-2.1467 0.008,-2.1572 0.007,-0.01 0.0127,-0.012 0.0511,-0.012 0.042,0 0.14019,0.01 0.20787,0.021 0.0187,0 0.0482,0.01 0.0655,0.011 0.0173,0 0.0444,0.01 0.0602,0.013 0.0159,0 0.0524,0.013 0.0812,0.02 0.0917,0.023 0.21508,0.072 0.34199,0.1361 0.0742,0.037 0.20402,0.1226 0.26847,0.1758 0.0192,0.016 0.0538,0.044 0.077,0.062 0.0359,0.028 0.0879,0.079 0.1164,0.1135 0.007,0.01 0.008,0.1568 0.0105,1.2408 l 0.002,1.2311 h 3.8137 3.8137 l 10e-4,-3.768 0.001,-3.7682 0.0864,-0.084 c 0.0475,-0.046 0.32927,-0.3266 0.6261,-0.623 0.29684,-0.2964 0.54369,-0.5389 0.54856,-0.5389 0.008,0 0.009,0.3094 0.009,5.043 v 5.043 h -5.0872 c -4.61775,0 -5.08796,0 -5.09543,-0.01 z m -34.368297,0 c -0.0087,0 -0.0092,-0.044 -0.0092,-0.6905 0,-0.6312 6.79e-4,-0.6857 0.0087,-0.6923 0.0069,-0.01 0.03867,-0.01 0.154953,-0.01 h 0.146284 l 0.01001,0.012 c 0.0095,0.012 0.01001,0.024 0.01001,0.2599 0,0.221 8.73e-4,0.248 0.0083,0.2508 0.01299,0 0.428139,0 0.436122,0 0.0059,0 0.007,-0.047 0.0063,-0.245 -5.34e-4,-0.1507 0.0011,-0.2457 0.0044,-0.2544 0.0087,-0.023 0.03055,-0.026 0.176451,-0.024 0.101793,0 0.133387,0 0.140085,0.01 0.008,0.01 0.0086,0.062 0.0086,0.6896 0,0.6134 -8.24e-4,0.6832 -0.0082,0.6906 -0.0071,0.01 -0.02832,0.01 -0.153176,0.01 -0.07972,0 -0.147937,0 -0.15159,0 -0.01537,-0.01 -0.01717,-0.045 -0.01654,-0.3186 3.56e-4,-0.1532 -9.21e-4,-0.2811 -0.0028,-0.2841 -0.0041,-0.01 -0.431053,-0.01 -0.441458,0 -0.0051,0 -0.0069,0.069 -0.0079,0.2988 -0.0012,0.2848 -0.0016,0.2949 -0.01143,0.3021 -0.0082,0.01 -0.03793,0.01 -0.154486,0.01 -0.08825,-2e-4 -0.147881,0 -0.153487,-0.01 z m 1.355401,0 c -0.0074,-0.01 -0.0082,-0.059 -0.0082,-0.4946 v -0.4863 l 0.01164,-0.01 c 0.0098,-0.01 0.0331,-0.01 0.148437,-0.01 0.125878,0 0.137491,0 0.145466,0.01 0.0079,0.01 0.0087,0.051 0.0087,0.4945 0,0.4339 -8.73e-4,0.4858 -0.0082,0.4932 -0.0071,0.01 -0.028,0.01 -0.148875,0.01 -0.120878,0 -0.141803,0 -0.148875,-0.01 z m 1.69193,0 c -0.008,-0.01 -0.0087,-0.065 -0.0087,-0.6988 v -0.6892 l 0.01164,-0.01 c 0.0098,-0.01 0.03291,-0.01 0.146384,-0.01 0.141416,0 0.158005,0 0.163526,0.023 0.0053,0.02 0.0033,0.3213 -0.0026,0.3982 -0.0083,0.1083 -0.01092,0.1041 0.04239,0.069 0.07596,-0.051 0.141669,-0.078 0.238276,-0.1 0.07998,-0.018 0.185352,-0.01 0.244516,0.022 0.05718,0.029 0.09895,0.079 0.120428,0.1427 0.01165,0.035 0.01172,0.037 0.0134,0.4349 0.0015,0.3552 7.76e-4,0.4014 -0.0065,0.4124 l -0.0082,0.013 H 86.69463 c -0.13429,0 -0.141791,0 -0.151747,-0.011 -0.01025,-0.01 -0.01047,-0.017 -0.01047,-0.3402 0,-0.2159 -0.0019,-0.3388 -0.0056,-0.356 -0.004,-0.018 -0.01026,-0.03 -0.02135,-0.04 -0.01413,-0.012 -0.02023,-0.013 -0.06076,-0.013 -0.03132,0 -0.05553,0 -0.07946,0.011 -0.04551,0.015 -0.12896,0.05 -0.153547,0.066 l -0.01964,0.012 v 0.3246 c 0,0.3177 -2.25e-4,0.3249 -0.01047,0.3352 -0.01,0.01 -0.01745,0.011 -0.151056,0.011 -0.129543,0 -0.141263,0 -0.14925,-0.01 z m 1.652569,0 -0.01164,-0.01 1.19e-4,-0.6478 c 1.18e-4,-0.6171 5.82e-4,-0.6487 0.0097,-0.6689 0.0108,-0.024 0.03631,-0.047 0.05733,-0.053 0.0077,0 0.07645,0 0.152773,0 0.187169,0 0.168006,-0.013 0.266018,0.1833 0.03448,0.069 0.09097,0.1834 0.125531,0.254 0.03456,0.071 0.09132,0.186 0.126127,0.2566 0.03481,0.071 0.07809,0.162 0.09618,0.2033 0.01809,0.041 0.03525,0.075 0.03813,0.075 0.0034,-3e-4 0.0043,-0.03 0.0026,-0.083 -0.0015,-0.046 -0.0026,-0.2611 -0.0026,-0.4795 0,-0.3871 2.57e-4,-0.3974 0.01017,-0.4046 0.01492,-0.011 0.278956,-0.011 0.293878,0 0.01,0.01 0.01017,0.02 0.01017,0.6481 0,0.6844 8.24e-4,0.6614 -0.02508,0.6965 -0.0057,0.01 -0.02387,0.02 -0.04041,0.028 -0.02958,0.013 -0.03216,0.014 -0.152494,0.014 -0.117172,0 -0.123533,0 -0.148633,-0.012 -0.01442,-0.01 -0.03363,-0.021 -0.04269,-0.031 -0.01531,-0.017 -0.100204,-0.1848 -0.260848,-0.5144 -0.0365,-0.075 -0.06946,-0.142 -0.07324,-0.1493 -0.0038,-0.01 -0.01767,-0.033 -0.03087,-0.059 -0.0132,-0.025 -0.0348,-0.071 -0.04801,-0.1021 -0.04179,-0.098 -0.04642,-0.1087 -0.04937,-0.1124 -0.0016,0 -0.0022,0.2139 -0.0014,0.4799 0.0014,0.4383 6.79e-4,0.4844 -0.0069,0.492 -0.01242,0.013 -0.276827,0.013 -0.294522,3e-4 z m 3.369101,0 c -0.0074,-0.01 -0.0082,-0.059 -0.0082,-0.4946 v -0.4864 l 0.01164,-0.01 c 0.0098,-0.01 0.03295,-0.01 0.146869,-0.01 h 0.13523 l 0.01296,0.013 0.01296,0.013 -0.0014,0.4824 c -0.0014,0.4705 -0.0016,0.4825 -0.01158,0.4897 -0.0082,0.01 -0.03754,0.01 -0.150185,0.01 -0.120308,0 -0.141177,0 -0.148248,-0.01 z m 1.708137,0 c -0.0086,0 -0.0092,-0.034 -0.0092,-0.4945 v -0.4891 l 0.01164,-0.01 c 0.0096,-0.01 0.03041,-0.01 0.120154,-0.01 0.135987,0 0.13268,0 0.141451,0.073 0.0032,0.027 0.0073,0.052 0.0091,0.054 0.0018,0 0.02915,-0.014 0.06078,-0.036 0.08771,-0.06 0.149065,-0.087 0.248643,-0.1082 0.125077,-0.027 0.24988,0 0.310617,0.061 0.03116,0.033 0.06128,0.091 0.06978,0.1357 0.0056,0.029 0.0071,0.12 0.0071,0.4232 l 6e-6,0.3859 -0.01164,0.01 c -0.01651,0.012 -0.279307,0.012 -0.295023,0 -0.0098,-0.01 -0.01026,-0.019 -0.01307,-0.3575 -0.0016,-0.1924 -0.0048,-0.3552 -0.0071,-0.3617 -0.01209,-0.033 -0.0872,-0.044 -0.151758,-0.022 -0.08409,0.03 -0.175696,0.069 -0.181896,0.079 -0.0024,0 -0.0044,0.1531 -0.0045,0.3318 -5.9e-5,0.2457 -0.0016,0.3265 -0.0064,0.3313 -0.0081,0.01 -0.284939,0.01 -0.29876,0 z m 8.152109,0 c -0.01,-0.01 -0.0102,-0.019 -0.0116,-0.4898 l -0.001,-0.4824 0.0129,-0.013 0.0129,-0.013 h 0.13581 c 0.12158,0 0.137,0 0.14706,0.01 l 0.0113,0.01 -1.5e-4,0.4739 c -8e-5,0.2606 -1.6e-4,0.4791 -1.9e-4,0.4853 -1.1e-4,0.027 -0.006,0.028 -0.15652,0.028 -0.11265,0 -0.14201,0 -0.15019,-0.01 z m 1.70882,0 c -0.009,0 -0.009,-0.034 -0.009,-0.4945 v -0.4891 l 0.0116,-0.01 c 0.0171,-0.012 0.22134,-0.012 0.23836,-2e-4 0.0134,0.01 0.0222,0.037 0.0224,0.071 1.3e-4,0.031 0.005,0.047 0.0133,0.047 0.004,0 0.023,-0.011 0.0426,-0.025 0.0196,-0.014 0.0439,-0.03 0.054,-0.037 0.0101,-0.01 0.0372,-0.021 0.0602,-0.033 0.14447,-0.069 0.30373,-0.078 0.40968,-0.024 0.0305,0.015 0.0804,0.067 0.098,0.1023 0.0281,0.055 0.0291,0.072 0.0291,0.49 0,0.3781 -1.9e-4,0.3853 -0.0105,0.3955 -0.01,0.01 -0.0174,0.011 -0.14925,0.011 -0.13179,0 -0.1393,0 -0.14925,-0.011 -0.0102,-0.01 -0.0105,-0.017 -0.0105,-0.3401 0,-0.2159 -0.002,-0.3387 -0.006,-0.356 -0.004,-0.018 -0.0103,-0.03 -0.0213,-0.04 -0.014,-0.012 -0.0204,-0.013 -0.058,-0.013 -0.0424,0 -0.0586,0 -0.13783,0.034 -0.0583,0.022 -0.10445,0.045 -0.11105,0.053 -0.005,0.01 -0.007,0.081 -0.007,0.3297 0,0.314 -2.3e-4,0.3213 -0.0105,0.3315 -0.01,0.01 -0.0174,0.011 -0.15056,0.01 -0.0854,-2e-4 -0.14366,0 -0.14925,-0.01 z m 5.01399,0 c -0.005,0 -0.006,-0.1218 -0.006,-0.4946 0,-0.4368 9.7e-4,-0.489 0.008,-0.4964 0.007,-0.01 0.0251,-0.01 0.11683,-0.01 0.0813,0 0.11096,0 0.11798,0.01 0.007,0 0.0123,0.023 0.0187,0.058 0.005,0.028 0.0116,0.053 0.0144,0.056 0.003,0 0.0139,0 0.0307,-0.017 0.0951,-0.082 0.22156,-0.1326 0.33194,-0.1317 0.0548,0 0.11342,0.014 0.15205,0.034 0.0295,0.015 0.0714,0.057 0.0903,0.09 l 0.0146,0.025 0.0168,-0.014 c 0.0879,-0.072 0.14621,-0.1015 0.24725,-0.1268 0.0726,-0.018 0.1811,-0.01 0.2424,0.024 0.0647,0.033 0.11052,0.1025 0.12106,0.1834 0.004,0.029 0.006,0.1785 0.006,0.4221 0,0.3595 -4.6e-4,0.3784 -0.01,0.3866 -0.008,0.01 -0.0266,0.01 -0.14924,0.01 -0.1327,0 -0.1402,-5e-4 -0.15015,-0.011 -0.0102,-0.01 -0.0105,-0.018 -0.0106,-0.3443 -6e-5,-0.1836 -0.002,-0.3433 -0.005,-0.3548 -0.003,-0.014 -0.0109,-0.026 -0.0219,-0.035 -0.0153,-0.013 -0.0212,-0.014 -0.0561,-0.014 -0.0271,0 -0.0487,0 -0.0709,0.012 -0.0375,0.014 -0.11065,0.053 -0.12753,0.068 l -0.0118,0.011 v 0.3256 c 0,0.3088 -4.9e-4,0.326 -0.01,0.3342 -0.008,0.01 -0.0264,0.01 -0.14599,0.01 -0.10528,0 -0.1377,0 -0.14204,-0.01 -0.004,0 -0.006,-0.115 -0.007,-0.3495 -10e-4,-0.3396 -10e-4,-0.3429 -0.0129,-0.3637 -0.0166,-0.031 -0.0347,-0.039 -0.0846,-0.039 -0.0303,0 -0.0504,0 -0.0725,0.012 -0.0301,0.011 -0.10038,0.051 -0.11829,0.066 -0.009,0.01 -0.009,0.03 -0.009,0.3367 v 0.3288 l -0.0116,0.01 c -0.01,0.01 -0.0333,0.01 -0.15082,0.01 -0.10127,0 -0.14089,0 -0.14546,-0.01 z m 1.74214,0 c -0.006,-0.01 -0.007,-0.09 -0.009,-0.4831 -9.7e-4,-0.261 -2.2e-4,-0.4796 10e-4,-0.4859 0.007,-0.027 0.0112,-0.028 0.12906,-0.028 0.10772,0 0.11008,2e-4 0.12192,0.012 0.01,0.01 0.0129,0.02 0.0157,0.051 0.006,0.069 0.009,0.07 0.0577,0.03 0.14261,-0.1174 0.339,-0.1541 0.46939,-0.088 0.0305,0.015 0.0706,0.054 0.0876,0.084 0.008,0.014 0.0174,0.025 0.0215,0.025 0.004,0 0.0193,-0.01 0.034,-0.023 0.0539,-0.045 0.11323,-0.079 0.16552,-0.094 0.0807,-0.023 0.0988,-0.026 0.14925,-0.026 0.0566,3e-4 0.115,0.013 0.15499,0.033 0.0293,0.015 0.0748,0.058 0.0904,0.086 0.0338,0.06 0.0319,0.032 0.0336,0.4837 0.001,0.3793 9.7e-4,0.4112 -0.007,0.4203 -0.008,0.01 -0.0188,0.01 -0.14843,0.01 -0.11226,0 -0.14158,0 -0.14975,-0.01 -0.01,-0.01 -0.0102,-0.018 -0.0128,-0.3574 -0.003,-0.3737 -0.002,-0.362 -0.0295,-0.3836 -0.0225,-0.017 -0.0825,-0.015 -0.13286,0.01 -0.0463,0.019 -0.10257,0.049 -0.11914,0.064 l -0.0118,0.011 v 0.3256 c 0,0.3088 -4.9e-4,0.326 -0.01,0.3342 -0.008,0.01 -0.0262,0.01 -0.14301,0.01 -0.0986,0 -0.1357,0 -0.14211,-0.01 -0.008,-0.01 -0.009,-0.037 -0.0102,-0.347 -10e-4,-0.3363 -10e-4,-0.3406 -0.0128,-0.3649 -0.0162,-0.035 -0.0329,-0.042 -0.0928,-0.04 -0.0451,0 -0.0506,0 -0.0975,0.027 -0.0273,0.014 -0.0592,0.032 -0.0707,0.04 l -0.0209,0.014 -0.001,0.3296 c -10e-4,0.3288 -10e-4,0.3297 -0.0124,0.3388 -0.01,0.01 -0.0255,0.01 -0.15128,0.01 -0.12398,0 -0.141,0 -0.14735,-0.01 z m 1.75276,4e-4 c -0.007,-0.01 -0.008,-0.059 -0.008,-0.4946 v -0.4864 l 0.0116,-0.01 c 0.0175,-0.012 0.28209,-0.012 0.29435,0 0.007,0.01 0.008,0.06 0.008,0.4965 0,0.3727 -10e-4,0.4896 -0.006,0.4944 -0.004,0 -0.045,0.01 -0.14888,0.01 -0.12265,0 -0.14374,0 -0.15082,-0.01 z m 2.64391,0 c -0.01,-0.01 -0.0102,-0.019 -0.0116,-0.4898 l -0.001,-0.4823 0.0129,-0.013 0.013,-0.013 h 0.13889 0.13889 l 0.008,0.012 c 0.007,0.011 0.008,0.068 0.007,0.4977 -0.001,0.4247 -0.002,0.486 -0.009,0.4904 -0.004,0 -0.0685,0 -0.14693,0 -0.11194,0 -0.14107,0 -0.14926,-0.01 z m 1.70781,0 c -0.007,-0.01 -0.008,-0.066 -0.008,-0.4923 0,-0.4736 1.6e-4,-0.4808 0.0105,-0.4911 0.01,-0.01 0.0174,-0.011 0.12175,-0.01 0.0612,0 0.11387,0 0.11704,0 0.0108,0.01 0.0175,0.026 0.0256,0.072 0.004,0.025 0.008,0.046 0.008,0.047 0,0.01 0.0203,0 0.0458,-0.021 0.11165,-0.085 0.24155,-0.1311 0.36533,-0.1307 0.11936,4e-4 0.20751,0.046 0.25223,0.1303 0.032,0.061 0.0332,0.078 0.0332,0.5039 v 0.3829 l -0.0116,0.01 c -0.01,0.01 -0.0332,0.01 -0.14924,0.01 -0.13063,0 -0.13814,0 -0.14809,-0.011 -0.0102,-0.01 -0.0105,-0.017 -0.0105,-0.3371 0,-0.1942 -0.002,-0.338 -0.005,-0.3548 -0.004,-0.021 -0.009,-0.032 -0.021,-0.043 -0.0145,-0.013 -0.0193,-0.015 -0.0578,-0.015 -0.0425,0 -0.0687,0.01 -0.13876,0.034 -0.0618,0.024 -0.1046,0.045 -0.11105,0.053 -0.005,0.01 -0.007,0.081 -0.007,0.3297 0,0.314 -2.2e-4,0.3213 -0.0105,0.3315 -0.01,0.01 -0.0174,0.011 -0.15157,0.011 -0.13987,0 -0.14116,0 -0.14925,-0.012 z m -31.107799,-1.1349 c -0.01497,-0.01 -0.02599,-0.017 -0.03535,-0.033 -0.01314,-0.022 -0.0136,-0.026 -0.0136,-0.1094 0,-0.085 2.13e-4,-0.086 0.01423,-0.1081 0.02304,-0.035 0.03803,-0.04 0.137455,-0.042 0.10238,0 0.123392,0 0.149011,0.03 0.02195,0.024 0.02586,0.049 0.02322,0.1446 -0.0022,0.079 -0.01013,0.098 -0.04821,0.1167 -0.02007,0.01 -0.03192,0.011 -0.113703,0.011 -0.07812,0 -0.09444,0 -0.113054,-0.01 z m 6.711895,0 c -0.04285,-0.022 -0.04462,-0.028 -0.04462,-0.1396 v -0.098 l 0.01425,-0.019 c 0.02214,-0.029 0.04842,-0.035 0.144486,-0.035 0.04755,0 0.08954,0 0.101793,0.01 0.02303,0.01 0.04904,0.03 0.05735,0.051 0.0083,0.021 0.01138,0.1297 0.0048,0.1654 -0.0072,0.039 -0.0179,0.054 -0.0478,0.069 -0.02133,0.011 -0.02997,0.012 -0.115103,0.012 -0.08513,0 -0.09378,0 -0.115103,-0.012 z m 9.863434,0 c -0.0457,-0.021 -0.055,-0.045 -0.0549,-0.1432 2.1e-4,-0.1339 0.0189,-0.1507 0.16734,-0.1507 0.10761,0 0.12891,0.01 0.1525,0.053 0.009,0.016 0.01,0.031 0.01,0.1 0,0.073 -10e-4,0.082 -0.0118,0.1037 -0.009,0.017 -0.0181,0.027 -0.0352,0.035 -0.0216,0.011 -0.0303,0.012 -0.11521,0.012 -0.0779,0 -0.095,0 -0.11279,-0.01 z m 10.21518,0 c -0.043,-0.022 -0.0453,-0.029 -0.0453,-0.1411 v -0.098 l 0.0202,-0.021 c 0.0288,-0.03 0.0484,-0.033 0.15313,-0.031 0.0997,0 0.10911,0 0.13155,0.037 l 0.0146,0.021 v 0.095 c 0,0.091 -4.9e-4,0.095 -0.0122,0.1118 -0.0238,0.034 -0.0414,0.038 -0.14598,0.038 -0.086,0 -0.0949,0 -0.11597,-0.012 z m 2.64548,0 c -0.0133,-0.01 -0.0273,-0.018 -0.0357,-0.031 -0.0138,-0.021 -0.0138,-0.021 -0.0121,-0.1145 0.001,-0.091 0.002,-0.094 0.0147,-0.1102 0.0246,-0.031 0.0404,-0.035 0.13597,-0.037 0.0987,0 0.12225,0 0.14653,0.028 0.0217,0.022 0.0289,0.067 0.0248,0.1538 -0.003,0.076 -0.0101,0.092 -0.0454,0.1096 -0.0215,0.011 -0.0301,0.012 -0.11509,0.012 -0.0789,0 -0.0949,0 -0.11375,-0.01 z m -23.896663,-0.4014 c -0.05385,-0.014 -0.09433,-0.038 -0.139453,-0.081 -0.06447,-0.062 -0.09155,-0.1206 -0.09155,-0.1987 0,-0.1284 0.09326,-0.2391 0.233838,-0.2777 0.05243,-0.015 0.142804,-0.012 0.195581,0 0.08474,0.028 0.160024,0.092 0.199107,0.171 0.02332,0.047 0.02333,0.047 0.02339,0.1048 5.9e-5,0.058 9e-6,0.058 -0.02293,0.1047 -0.04175,0.086 -0.120086,0.1493 -0.212449,0.1727 -0.04032,0.01 -0.146879,0.01 -0.185531,-3e-4 z m 17.307093,-0.023 c -0.0476,-0.013 -0.0694,-0.023 -0.10931,-0.051 -0.0496,-0.035 -0.0718,-0.061 -0.0949,-0.1086 -0.0383,-0.08 -0.0383,-0.1504 -1.6e-4,-0.2355 0.0286,-0.064 0.10439,-0.1298 0.17818,-0.1554 0.0294,-0.01 0.045,-0.012 0.11522,-0.012 0.0713,-2e-4 0.0854,0 0.11586,0.012 0.0482,0.016 0.0905,0.043 0.12924,0.081 0.0399,0.039 0.0592,0.072 0.0738,0.1244 0.0229,0.083 0.007,0.1631 -0.0466,0.2346 -0.0168,0.022 -0.0898,0.078 -0.12045,0.091 -0.0694,0.031 -0.1702,0.039 -0.24089,0.02 z m 0.82742,0 c -0.0683,-0.018 -0.12642,-0.054 -0.17397,-0.1088 -0.0897,-0.1024 -0.0874,-0.237 0.006,-0.3455 0.0378,-0.044 0.0724,-0.069 0.12631,-0.091 0.0334,-0.014 0.0483,-0.016 0.0995,-0.019 0.0857,0 0.1285,0 0.18591,0.032 0.10561,0.052 0.1702,0.1508 0.1702,0.2591 0,0.053 -0.0133,0.095 -0.0466,0.1444 -0.0404,0.061 -0.11941,0.1129 -0.198,0.1307 -0.0484,0.011 -0.12488,0.01 -0.16916,0 z m -24.194095,-0.868 c -0.194319,-0.015 -0.296335,-0.032 -0.387525,-0.065 -0.142106,-0.052 -0.190915,-0.08 -0.276162,-0.1592 -0.07628,-0.071 -0.142702,-0.1891 -0.171162,-0.3039 -0.0265,-0.107 -0.02573,-0.082 -0.02775,-0.8943 l -0.0019,-0.758 0.01305,-0.013 0.01305,-0.013 h 0.360999 c 0.347599,0 0.361457,3e-4 0.373361,0.01 l 0.01236,0.01 0.0038,0.7518 c 0.0037,0.7335 0.0041,0.7526 0.01433,0.7817 0.02047,0.058 0.05593,0.092 0.115261,0.1107 0.02686,0.01 0.08908,0.01 0.879888,0.01 0.82267,0 0.852115,0 0.885022,-0.012 0.06715,-0.02 0.100194,-0.052 0.118921,-0.1165 0.0091,-0.031 0.0095,-0.1282 0.0035,-1.0153 l -0.0034,-0.5059 0.0112,-0.011 0.0112,-0.011 h 0.368195 c 0.309734,0 0.369808,0 0.37836,0.01 0.01,0.01 0.01017,0.021 0.01017,0.7842 0,0.7286 -5.82e-4,0.7797 -0.0095,0.8239 -0.02272,0.1131 -0.05956,0.2105 -0.106327,0.281 -0.05147,0.078 -0.161237,0.1695 -0.244278,0.2043 -0.02086,0.01 -0.04617,0.019 -0.05625,0.024 -0.01008,0 -0.02894,0.011 -0.0419,0.015 -0.01296,0 -0.03064,0.01 -0.03928,0.012 -0.05294,0.019 -0.159313,0.039 -0.264459,0.049 -0.0416,0 -0.347692,0.01 -0.989759,0.01 -0.511244,0 -0.940139,3e-4 -0.9531,0 z m 4.257532,0 c -0.17748,0 -0.236752,-0.01 -0.324683,-0.021 -0.04762,-0.01 -0.125002,-0.026 -0.145553,-0.034 -0.0095,0 -0.02598,-0.01 -0.03666,-0.012 -0.05093,-0.013 -0.135367,-0.051 -0.179129,-0.081 -0.07589,-0.052 -0.125643,-0.1004 -0.167732,-0.1637 -0.06587,-0.099 -0.102749,-0.2035 -0.117279,-0.332 -0.0015,-0.013 -0.0041,-0.5774 -0.0059,-1.2542 -0.0029,-1.0889 -0.0023,-1.2319 0.0047,-1.2412 0.0077,-0.01 0.01485,-0.011 0.363071,-0.012 0.19537,0 0.360452,-2e-4 0.366849,0 0.0064,0 0.01432,0.01 0.01762,0.014 0.0044,0.01 0.0071,0.3299 0.01014,1.2162 0.0038,1.0951 0.005,1.2083 0.01285,1.2416 0.01549,0.065 0.04921,0.1062 0.107067,0.1296 l 0.02922,0.012 h 0.8536 0.853602 l 0.03028,-0.012 c 0.05996,-0.024 0.09633,-0.063 0.112113,-0.1187 0.01095,-0.039 0.01103,-0.054 0.0048,-0.8908 l -0.0047,-0.6289 0.01125,-0.011 0.01125,-0.011 h 0.366204 c 0.325929,0 0.367108,0 0.374432,0.01 0.0074,0.01 0.0084,0.075 0.0095,0.6586 0.0015,0.7294 1.39e-4,0.9066 -0.0071,0.9409 -0.0027,0.013 -0.0083,0.041 -0.01242,0.063 -0.02004,0.1055 -0.05729,0.1834 -0.134555,0.2814 -0.01988,0.025 -0.09751,0.09 -0.140711,0.1179 -0.03009,0.019 -0.09645,0.051 -0.106605,0.051 -0.0032,0 -0.01256,0 -0.0208,0.01 -0.03013,0.015 -0.168392,0.051 -0.246868,0.062 -0.03168,0 -0.105914,0.011 -0.16496,0.014 -0.122183,0.01 -1.433262,0.01 -1.722912,0 z m 4.09519,0 c -0.153662,0 -0.215941,-0.01 -0.26184,-0.012 -0.102857,-0.015 -0.18991,-0.037 -0.252338,-0.062 -0.01349,-0.01 -0.02705,-0.01 -0.03013,-0.01 -0.0031,0 -0.02765,-0.011 -0.05459,-0.023 -0.05043,-0.024 -0.116437,-0.07 -0.162249,-0.1121 -0.03651,-0.034 -0.09947,-0.1198 -0.120584,-0.1646 -0.03781,-0.08 -0.06387,-0.1853 -0.07682,-0.31 -0.0024,-0.023 -0.0045,-0.5808 -0.0047,-1.2394 -2.97e-4,-1.082 4.65e-4,-1.1983 0.0079,-1.2058 0.0073,-0.01 0.04817,-0.01 0.370813,-0.01 0.304851,0 0.364202,0 0.372749,0.01 0.0099,0.01 0.01019,0.019 0.01121,0.4229 0.0019,0.7741 0.01261,2.022 0.01752,2.0479 0.01198,0.063 0.04937,0.1032 0.117214,0.1254 l 0.03704,0.012 h 1.269929 c 0.69846,0 1.271762,0 1.274004,-0.01 0.0022,0 0.0034,-0.2348 0.0026,-0.5169 l -0.0015,-0.5129 -0.01724,-0.035 c -0.02579,-0.052 -0.06178,-0.079 -0.139759,-0.1038 -0.03358,-0.011 -0.04659,-0.012 -0.159723,-0.011 -0.07675,2e-4 -0.133039,0 -0.149355,0.01 -0.0144,0 -0.04386,0.01 -0.06546,0.013 -0.07055,0.012 -0.171273,0.041 -0.274082,0.08 -0.06457,0.024 -0.08231,0.026 -0.09211,0.01 -0.0028,-0.01 -0.01223,-0.031 -0.02088,-0.056 -0.0086,-0.026 -0.02656,-0.075 -0.03979,-0.1094 -0.08047,-0.2102 -0.09096,-0.2487 -0.07227,-0.2656 0.0094,-0.01 0.0558,-0.026 0.137785,-0.051 0.0216,-0.01 0.05224,-0.016 0.06808,-0.021 0.02501,-0.01 0.06027,-0.017 0.136721,-0.037 0.154319,-0.039 0.498878,-0.067 0.656326,-0.053 0.187428,0.016 0.287737,0.041 0.402432,0.098 0.0856,0.043 0.139416,0.081 0.195258,0.1397 0.07399,0.078 0.119597,0.1509 0.146204,0.2344 0.0078,0.025 0.01727,0.053 0.02105,0.063 0.01115,0.03 0.02375,0.088 0.03249,0.1493 0.0067,0.047 0.0088,0.1422 0.01139,0.521 l 0.0032,0.4635 h 0.335156 0.335156 l 0.04271,-0.015 c 0.0235,-0.01 0.04773,-0.018 0.05385,-0.024 l 0.01114,-0.01 -2.41e-4,-0.7631 c -1.39e-4,-0.4196 -0.0017,-0.7735 -0.0034,-0.7864 -0.0017,-0.013 -0.0016,-0.032 2.73e-4,-0.042 0.0069,-0.037 -0.02029,-0.034 0.38823,-0.034 h 0.3687 l 0.0079,0.012 c 0.0069,0.011 0.0084,0.108 0.01199,0.7633 l 0.0041,0.7512 0.01459,0.032 c 0.0254,0.055 0.06488,0.086 0.133091,0.1056 0.02633,0.01 0.07249,0.01 0.360119,0.011 0.335513,0 0.42971,0 0.473932,-0.016 0.05435,-0.019 0.09599,-0.075 0.103823,-0.1401 0.0022,-0.018 0.0024,-0.3586 4.24e-4,-0.7559 -0.002,-0.3973 -0.0024,-0.7288 -9.21e-4,-0.7366 0.0054,-0.029 -0.0098,-0.028 0.387595,-0.028 h 0.368853 l 0.01001,0.012 c 0.0097,0.012 0.01006,0.029 0.01132,0.5185 0.0023,0.9001 0.0018,0.989 -0.0056,1.0455 -0.01448,0.1099 -0.03717,0.1842 -0.08319,0.2723 -0.05445,0.1042 -0.148585,0.194 -0.26078,0.2487 -0.09028,0.044 -0.226349,0.084 -0.322687,0.094 -0.02414,0 -0.06274,0.01 -0.08579,0.011 -0.02551,0 -0.197558,0.01 -0.439893,0.01 -0.390272,0 -0.542205,0 -0.638891,-0.014 -0.07751,-0.011 -0.175401,-0.035 -0.234009,-0.058 -0.01349,-0.01 -0.02716,-0.01 -0.03036,-0.01 -0.01186,0 -0.113808,-0.052 -0.14672,-0.074 -0.01872,-0.013 -0.03671,-0.025 -0.03997,-0.027 -0.0032,0 -0.02329,0.01 -0.04451,0.022 -0.05865,0.039 -0.104312,0.06 -0.190452,0.088 -0.09708,0.032 -0.144511,0.044 -0.247001,0.06 -0.07178,0.012 -0.07959,0.012 -0.85273,0.013 -1.691275,0 -2.900144,0 -3.092341,0 z m 9.698583,-0.01 c -0.29792,0 -0.39527,-0.01 -0.46951,-0.029 -0.0166,0 -0.0357,-0.01 -0.0424,-0.01 -0.007,0 -0.0186,0 -0.0264,-0.01 -0.008,0 -0.0224,-0.01 -0.0325,-0.011 -0.0101,0 -0.0419,-0.013 -0.0708,-0.025 l -0.0524,-0.021 -0.0471,0.019 c -0.10087,0.041 -0.16044,0.057 -0.25916,0.071 -0.0664,0.01 -0.11162,0.01 -0.75052,0.01 -0.43121,0 -0.683307,0 -0.68935,0 -0.0052,0 -0.01081,-0.011 -0.01238,-0.017 -0.0016,-0.01 -0.0036,-0.12 -0.0045,-0.252 l -0.0017,-0.2401 0.01265,-0.01 c 0.01177,-0.01 0.02065,-0.01 0.12731,-0.01 0.06306,4e-4 0.116144,0 0.117961,0 0.0018,0 0.0028,-0.5317 0.0021,-1.1775 -9.7e-4,-0.9611 5.9e-5,-1.1766 0.0057,-1.1873 l 0.0069,-0.013 h 0.337621 c 0.185688,0 0.342618,-3e-4 0.348738,0 0.006,0 0.0137,0.01 0.0168,0.017 0.004,0.01 0.007,0.3596 0.01,1.1875 l 0.004,1.173 h 0.12306 c 0.10545,0 0.12714,0 0.15155,-0.01 0.0626,-0.021 0.095,-0.058 0.11867,-0.1349 l 0.0135,-0.044 -0.003,-0.8614 c -0.002,-0.4738 -0.005,-1.015 -0.007,-1.2026 l -0.003,-0.3412 0.0137,-0.013 0.0137,-0.014 h 0.36407 0.36408 l 0.007,0.012 c 0.008,0.012 0.008,0.015 0.0189,1.8342 0.002,0.4053 0.006,0.6394 0.009,0.6495 0.018,0.053 0.0547,0.093 0.10546,0.1136 l 0.0296,0.012 h 0.45037 c 0.423,0 0.45229,0 0.48203,-0.01 0.0502,-0.015 0.0767,-0.038 0.10016,-0.085 l 0.0201,-0.041 v -1.2319 c 0,-1.0037 10e-4,-1.2332 0.007,-1.2388 0.005,-0.01 0.0808,-0.01 0.37302,-0.01 0.36138,0 0.36635,0 0.37679,0.01 0.01,0.01 0.0106,0.017 0.0106,0.083 1e-5,0.04 0.002,0.5786 0.006,1.1979 0.006,1.185 0.006,1.2044 -0.0169,1.3092 -0.014,0.065 -0.0265,0.1 -0.0622,0.1728 -0.0376,0.077 -0.0716,0.1224 -0.12755,0.1712 -0.0756,0.066 -0.13658,0.1006 -0.23113,0.1316 -0.1838,0.06 -0.26745,0.072 -0.54463,0.075 -0.10369,0 -0.23684,0 -0.29588,0 -0.059,0 -0.23815,-2e-4 -0.398,0 z m 3.90928,-0.01 c -0.19726,-0.01 -0.32099,-0.032 -0.46345,-0.087 -0.15169,-0.059 -0.28072,-0.1791 -0.33575,-0.3138 -0.0535,-0.131 -0.0661,-0.192 -0.0725,-0.3501 -0.003,-0.066 -0.006,-0.6275 -0.006,-1.2471 -0.001,-1.1018 -0.001,-1.1269 0.008,-1.1377 0.01,-0.011 0.0106,-0.011 0.37312,-0.011 0.34526,0 0.36362,5e-4 0.37275,0.01 0.009,0.01 0.01,0.032 0.0131,0.4177 0.002,0.2244 0.005,0.7662 0.006,1.204 0.002,0.4967 0.005,0.8088 0.008,0.83 0.0126,0.081 0.0509,0.1242 0.12765,0.1447 0.0213,0.01 0.18253,0.01 0.86828,0.01 0.75816,0 0.84585,0 0.87979,-0.01 0.0399,-0.01 0.0709,-0.022 0.0814,-0.035 0.005,-0.01 0.006,-0.1864 0.006,-0.8119 -2.8e-4,-0.7924 -1.3e-4,-0.8042 0.01,-0.8096 0.007,0 0.1328,-0.01 0.37964,-0.01 h 0.36943 l 0.008,0.012 c 0.006,0.01 0.008,0.1221 0.0111,0.7449 0.002,0.4032 0.006,0.7445 0.008,0.7585 0.0104,0.056 0.0464,0.1064 0.0912,0.1265 0.063,0.028 0.0719,0.029 0.46711,0.029 0.33708,-2e-4 0.3688,0 0.40744,-0.01 0.0489,-0.011 0.0911,-0.029 0.093,-0.038 4.8e-4,0 10e-4,-0.5799 10e-4,-1.2804 0,-1.1251 9.7e-4,-1.2745 0.008,-1.2815 0.007,-0.01 0.0556,-0.01 0.37122,-0.01 0.32783,0 0.36418,2e-4 0.37181,0.01 0.008,0.01 0.009,0.047 0.0124,0.3552 0.002,0.1907 0.006,0.7427 0.008,1.2265 l 0.004,0.8798 0.017,0.033 c 0.0291,0.056 0.0682,0.087 0.13194,0.1049 0.0252,0.01 0.14391,0.01 0.93608,0.01 h 0.90728 v -0.013 c 0,-0.01 -0.003,-0.018 -0.007,-0.025 -0.01,-0.015 -0.0476,-0.1281 -0.0576,-0.1713 -0.0221,-0.095 -0.0282,-0.1402 -0.0402,-0.2933 -0.0117,-0.1493 0.004,-0.3468 0.0393,-0.487 0.0121,-0.048 0.0427,-0.1384 0.0578,-0.1702 0.0502,-0.1058 0.0705,-0.1432 0.0992,-0.1829 0.0769,-0.1063 0.14268,-0.1715 0.23739,-0.235 0.0669,-0.045 0.11016,-0.066 0.18997,-0.092 0.0611,-0.02 0.0807,-0.025 0.1414,-0.039 0.0298,-0.01 0.2764,-0.01 0.31159,5e-4 0.0144,0 0.0403,0.01 0.0576,0.012 0.0659,0.013 0.17739,0.048 0.21361,0.066 0.009,0 0.0362,0.021 0.0598,0.036 0.0478,0.031 0.0548,0.043 0.0435,0.075 -0.004,0.01 -0.0215,0.057 -0.0396,0.1026 -0.0181,0.046 -0.0451,0.1192 -0.0601,0.1624 -0.0149,0.043 -0.0294,0.083 -0.0321,0.088 -0.008,0.015 -0.0359,0.012 -0.0607,-0.01 -0.029,-0.021 -0.0726,-0.035 -0.1311,-0.043 -0.15055,-0.019 -0.25356,0.057 -0.31463,0.2316 -0.0422,0.1209 -0.0559,0.2104 -0.0559,0.3666 0,0.1513 0.0153,0.251 0.0563,0.3666 0.0556,0.1568 0.13288,0.2324 0.25119,0.2457 0.0593,0.01 0.97835,0 1.02466,-0.01 0.0443,-0.01 0.0782,-0.025 0.10517,-0.056 0.0336,-0.038 0.0474,-0.077 0.0508,-0.143 10e-4,-0.03 3.2e-4,-0.5777 -0.003,-1.2166 -0.004,-0.7802 -0.004,-1.1663 -1.8e-4,-1.1756 0.003,-0.01 0.008,-0.016 0.0115,-0.018 0.003,0 0.16904,0 0.36806,0 0.34965,0 0.36214,3e-4 0.37089,0.01 0.008,0.01 0.009,0.083 0.0135,1.2006 0.003,0.7296 0.002,1.2209 -4.5e-4,1.269 -0.004,0.073 -0.0164,0.145 -0.0332,0.2017 -0.0193,0.065 -0.0733,0.1598 -0.12721,0.2234 -0.0507,0.06 -0.17743,0.1425 -0.25807,0.1684 -0.0187,0.01 -0.0458,0.015 -0.0602,0.019 -0.0885,0.029 -0.21542,0.049 -0.35348,0.055 -0.0619,0 -0.6817,0.01 -1.37728,0.01 -0.69559,0 -1.27294,0 -1.28303,0 -0.0101,0 -0.27755,5e-4 -0.59437,0 -0.69048,0 -0.7637,0 -0.90859,-0.044 -0.13003,-0.035 -0.22183,-0.073 -0.2814,-0.1164 -0.0179,-0.013 -0.038,-0.024 -0.0445,-0.024 -0.007,0 -0.026,0.01 -0.0433,0.021 -0.0382,0.026 -0.10329,0.058 -0.14925,0.075 -0.0526,0.019 -0.10203,0.035 -0.11077,0.035 -0.004,0 -0.023,0 -0.0416,0.01 -0.11186,0.033 -0.24998,0.043 -0.59919,0.043 -0.34374,0 -0.45921,-0.01 -0.5738,-0.042 -0.0189,-0.01 -0.0383,-0.01 -0.0431,-0.01 -0.005,0 -0.0163,0 -0.0258,-0.01 -0.009,0 -0.0302,-0.012 -0.046,-0.016 -0.0443,-0.014 -0.11207,-0.046 -0.15995,-0.079 -0.0238,-0.016 -0.0467,-0.029 -0.051,-0.029 -0.004,0 -0.0236,0.011 -0.043,0.024 -0.11268,0.075 -0.30958,0.1346 -0.50538,0.1517 -0.069,0.01 -0.23789,0.01 -0.83789,0.01 -0.41331,0 -0.78683,0 -0.83003,0 z m 9.98523,-0.01 c -0.006,0 -0.0139,-0.011 -0.0163,-0.017 -0.005,-0.014 -0.0106,-0.9811 -0.0122,-2.2228 -9.7e-4,-0.86 -9.7e-4,-0.8863 0.009,-0.8968 0.01,-0.011 0.0122,-0.011 0.37167,-0.011 0.19901,0 0.36443,0 0.3676,0 0.003,0 0.008,0.01 0.0111,0.014 0.003,0.01 0.007,0.3047 0.009,0.8719 0.002,0.4739 0.005,1.1679 0.008,1.5423 0.002,0.3745 0.003,0.6862 0.001,0.6928 -0.001,0.01 -0.006,0.014 -0.0111,0.016 -0.0126,0.01 -0.72252,0.012 -0.73751,0.01 z m 3.47601,-0.7122 c -0.34418,-0.3425 -0.63169,-0.6258 -0.63889,-0.6296 -0.007,0 -0.0289,-0.024 -0.0483,-0.044 -0.0349,-0.037 -0.12288,-0.1131 -0.18647,-0.1614 -0.0936,-0.071 -0.23829,-0.1532 -0.3562,-0.2022 -0.0278,-0.012 -0.0542,-0.023 -0.0588,-0.026 -0.0104,-0.01 -0.067,-0.027 -0.10305,-0.039 -0.11664,-0.038 -0.3732,-0.082 -0.48142,-0.082 -0.0754,0 -0.0799,-0.012 -0.0288,-0.076 0.0764,-0.096 0.21123,-0.2276 0.31345,-0.3059 0.16852,-0.1291 0.39683,-0.2445 0.59084,-0.2986 0.14295,-0.04 0.14616,-0.041 0.21733,-0.053 0.0809,-0.014 0.21782,-0.026 0.30112,-0.026 0.1513,0 0.32952,0.023 0.44026,0.058 0.0175,0.01 0.0354,0.01 0.0398,0.01 0.0106,0 0.1492,0.045 0.19551,0.063 0.0328,0.013 0.10288,0.046 0.13092,0.062 0.006,0 0.0329,0.017 0.0602,0.031 0.0807,0.04 0.23972,0.1471 0.30374,0.2048 0.0629,0.057 0.0933,0.08 0.10295,0.08 0.005,0 0.0446,-0.027 0.0872,-0.059 0.0427,-0.033 0.1031,-0.078 0.13428,-0.1007 0.06,-0.044 0.12958,-0.097 0.22018,-0.165 0.0949,-0.072 0.22395,-0.1685 0.28296,-0.2121 0.0312,-0.023 0.0804,-0.06 0.10923,-0.081 0.0288,-0.021 0.0652,-0.049 0.0807,-0.06 0.0599,-0.045 0.18173,-0.136 0.2393,-0.1799 0.0331,-0.025 0.072,-0.054 0.0864,-0.064 0.0144,-0.01 0.038,-0.028 0.0524,-0.039 0.0144,-0.012 0.0391,-0.031 0.055,-0.042 0.0159,-0.012 0.0992,-0.074 0.18518,-0.1384 0.086,-0.065 0.18059,-0.1351 0.21017,-0.1567 0.0497,-0.036 0.0945,-0.07 0.19641,-0.1467 0.16498,-0.1245 0.28539,-0.2146 0.31421,-0.2351 0.0187,-0.013 0.0529,-0.039 0.0759,-0.057 0.023,-0.018 0.1338,-0.1011 0.24613,-0.1849 0.11233,-0.084 0.22898,-0.1709 0.25922,-0.1938 0.14122,-0.1068 0.35623,-0.2673 0.39716,-0.2965 0.025,-0.018 0.0666,-0.049 0.0925,-0.069 0.0259,-0.02 0.0674,-0.052 0.0922,-0.07 0.0248,-0.018 0.0964,-0.072 0.15917,-0.1191 0.0627,-0.047 0.14049,-0.1052 0.17279,-0.1283 0.0323,-0.023 0.0703,-0.052 0.0844,-0.063 0.0141,-0.012 0.0481,-0.038 0.0757,-0.058 0.0524,-0.038 0.36897,-0.2742 0.41816,-0.3124 0.0156,-0.012 0.0524,-0.04 0.0818,-0.061 0.0294,-0.022 0.0755,-0.056 0.10254,-0.076 0.14465,-0.109 0.21942,-0.1649 0.25539,-0.1907 0.022,-0.016 0.0589,-0.044 0.0819,-0.061 0.023,-0.018 0.12901,-0.097 0.23558,-0.1769 0.10657,-0.079 0.21157,-0.1582 0.23334,-0.1751 0.0218,-0.017 0.0571,-0.044 0.0786,-0.059 0.0214,-0.016 0.0967,-0.072 0.16727,-0.1246 0.0706,-0.053 0.14834,-0.1114 0.17282,-0.1294 0.0245,-0.018 0.0561,-0.042 0.0702,-0.053 0.0142,-0.011 0.0592,-0.045 0.10003,-0.075 0.15168,-0.1123 0.23064,-0.1714 0.28734,-0.2151 0.0321,-0.025 0.0762,-0.058 0.0983,-0.073 0.022,-0.015 0.0527,-0.038 0.0681,-0.05 0.0515,-0.041 0.36604,-0.2759 0.41495,-0.3104 0.0265,-0.019 0.0611,-0.045 0.0768,-0.058 0.0157,-0.013 0.045,-0.035 0.0652,-0.05 0.0202,-0.014 0.052,-0.037 0.0707,-0.052 0.0187,-0.014 0.0635,-0.048 0.0995,-0.075 0.036,-0.027 0.0867,-0.065 0.11271,-0.085 0.026,-0.02 0.066,-0.05 0.089,-0.066 0.023,-0.017 0.0536,-0.04 0.068,-0.052 0.0396,-0.033 0.0884,-0.065 0.0984,-0.065 0.006,0 0.009,0 0.009,0.015 0,0.012 -0.009,0.024 -0.0451,0.059 -0.0248,0.024 -1.73487,1.7329 -3.80015,3.7973 -3.39835,3.397 -3.75659,3.7535 -3.77123,3.7534 -0.0144,-2e-4 -0.0846,-0.068 -0.64198,-0.6229 z m -1.92889,-1.3286 c -0.002,0 -0.003,-1.2827 -0.003,-2.8462 v -2.8427 h 5.05353 c 5.01987,0 5.05353,0 5.05353,0.01 0,0.01 -0.005,0.013 -0.0107,0.016 -0.0109,0.01 -0.07,0.049 -0.18827,0.1387 -0.12911,0.098 -0.2169,0.1629 -0.26682,0.199 -0.0279,0.02 -0.0706,0.052 -0.0949,0.071 -0.0243,0.019 -0.0586,0.045 -0.0762,0.058 -0.0386,0.028 -0.18057,0.1341 -0.26379,0.1976 -0.0331,0.025 -0.072,0.054 -0.0864,0.064 -0.0144,0.01 -0.0442,0.033 -0.0663,0.05 -0.0221,0.018 -0.055,0.043 -0.0733,0.055 -0.0183,0.012 -0.0512,0.037 -0.0731,0.054 -0.022,0.017 -0.0629,0.048 -0.0909,0.068 -0.0281,0.02 -0.0761,0.056 -0.10673,0.08 -0.0958,0.075 -0.17287,0.1331 -0.22788,0.1725 l -0.053,0.038 h -3.56465 c -2.15182,0 -3.56583,0 -3.56762,0 -10e-4,0 -0.003,0.8488 -0.004,1.8804 -0.001,1.8499 -0.001,1.8758 -0.0114,1.8831 -0.006,0 -0.0186,0.01 -0.0288,0.01 -0.0102,0 -0.0362,0 -0.0576,0.011 -0.0214,0.01 -0.0489,0.01 -0.0612,0.01 -0.0324,0 -0.19943,0.042 -0.3005,0.075 -0.15528,0.051 -0.36305,0.1634 -0.51486,0.2777 -0.0656,0.049 -0.18169,0.1557 -0.23397,0.2144 -0.039,0.044 -0.0526,0.056 -0.0633,0.056 -0.007,0 -0.0151,0 -0.0171,0 z m -33.055661,-0.5069 c -0.04263,-0.01 -0.05827,-0.013 -0.116705,-0.041 -0.05509,-0.027 -0.11144,-0.093 -0.135759,-0.1601 -0.01589,-0.044 -0.01639,-0.1062 -0.0012,-0.1554 0.01285,-0.042 0.05393,-0.1041 0.08869,-0.1351 0.05131,-0.046 0.149269,-0.082 0.219984,-0.082 0.08309,0 0.19674,0.044 0.246764,0.095 0.119601,0.1233 0.116396,0.2884 -0.0078,0.4001 -0.0409,0.037 -0.120613,0.072 -0.176158,0.077 -0.01872,0 -0.04346,0 -0.05499,0.01 -0.01152,0 -0.0398,0 -0.06284,0 z m 0.814325,0 c -0.06515,-0.011 -0.143803,-0.054 -0.185995,-0.1018 -0.04641,-0.053 -0.07439,-0.1309 -0.06878,-0.1921 0.01255,-0.1372 0.11,-0.239 0.258504,-0.2701 0.07491,-0.015 0.145232,-0.01 0.225629,0.032 0.06497,0.031 0.111272,0.076 0.140394,0.1353 l 0.02039,0.042 v 0.076 c 0,0.076 -4e-5,0.076 -0.01785,0.1126 -0.02063,0.043 -0.0781,0.1038 -0.115693,0.1235 -0.06089,0.032 -0.09879,0.042 -0.167579,0.044 -0.036,0 -0.07606,3e-4 -0.08903,0 z m 9.413179,0 c -0.131305,-0.031 -0.212506,-0.095 -0.252904,-0.2024 -0.0162,-0.043 -0.01597,-0.1194 4.85e-4,-0.1605 0.03129,-0.078 0.07192,-0.1262 0.139139,-0.164 0.06186,-0.035 0.103025,-0.046 0.174303,-0.046 0.06342,0 0.09725,0.01 0.161734,0.039 0.06871,0.033 0.1332,0.1066 0.15401,0.1767 0.01184,0.04 0.01068,0.1156 -0.0024,0.1579 -0.0122,0.04 -0.04325,0.084 -0.08385,0.1207 -0.04162,0.037 -0.07402,0.052 -0.167456,0.077 -0.01857,0 -0.103848,0.01 -0.123065,0 z m 1.322296,0 c -0.102016,-0.022 -0.164097,-0.058 -0.213107,-0.1229 -0.0312,-0.041 -0.04278,-0.069 -0.04949,-0.1191 -0.01969,-0.1462 0.06407,-0.2659 0.223321,-0.3189 0.05264,-0.017 0.141465,-0.017 0.193762,2e-4 0.115678,0.039 0.186347,0.1051 0.218635,0.2045 0.03034,0.094 0.0047,0.1893 -0.0707,0.264 -0.05143,0.051 -0.09599,0.073 -0.189832,0.092 -0.0253,0.01 -0.08733,0.01 -0.112591,-2e-4 z m 0.82218,0 c -0.0717,-0.016 -0.132348,-0.043 -0.172405,-0.077 -0.05076,-0.044 -0.09323,-0.1232 -0.09824,-0.1846 -0.0083,-0.1011 0.05357,-0.2099 0.150094,-0.2642 0.0681,-0.038 0.102395,-0.048 0.175542,-0.048 0.06804,0 0.09622,0.01 0.162341,0.039 0.100697,0.049 0.165074,0.1484 0.164897,0.2535 -1.18e-4,0.073 -0.02064,0.1212 -0.07691,0.181 -0.03004,0.032 -0.04806,0.046 -0.07671,0.06 -0.07442,0.036 -0.167478,0.053 -0.228597,0.039 z m 1.814557,0 c -0.04146,-0.01 -0.108362,-0.026 -0.141394,-0.043 -0.04112,-0.021 -0.09195,-0.069 -0.113808,-0.1062 -0.02041,-0.035 -0.04068,-0.101 -0.04068,-0.1326 0,-0.032 0.01543,-0.087 0.03564,-0.1286 0.01922,-0.039 0.08337,-0.1028 0.125656,-0.1246 0.06703,-0.034 0.09127,-0.04 0.166003,-0.04 0.05751,2e-4 0.07336,0 0.102118,0.012 0.120029,0.043 0.202356,0.1243 0.219486,0.2177 0.01107,0.06 0.0044,0.1318 -0.01632,0.173 -0.03731,0.074 -0.121129,0.1399 -0.197933,0.1546 -0.01296,0 -0.02946,0.01 -0.03666,0.01 -0.0157,0.01 -0.08012,0.011 -0.102119,0.01 z m -13.165358,-1.1251 c -0.02304,-0.01 -0.05014,-0.016 -0.06022,-0.021 -0.05836,-0.029 -0.107302,-0.074 -0.129027,-0.1183 -0.02663,-0.054 -0.02985,-0.066 -0.03215,-0.1124 -0.0021,-0.042 -6.3e-4,-0.053 0.01193,-0.089 0.01744,-0.051 0.04154,-0.088 0.07878,-0.1219 0.03591,-0.033 0.065,-0.049 0.118475,-0.066 0.03567,-0.011 0.05271,-0.014 0.103392,-0.014 0.05338,0 0.06631,0 0.107376,0.016 0.07223,0.024 0.105615,0.048 0.155584,0.1099 0.05082,0.063 0.06571,0.1634 0.036,0.2424 -0.02182,0.058 -0.07999,0.1179 -0.144013,0.148 -0.08645,0.041 -0.166062,0.049 -0.246131,0.026 z m 0.801233,0 c -0.06417,-0.018 -0.119111,-0.049 -0.156337,-0.088 -0.067,-0.069 -0.08886,-0.1455 -0.06828,-0.2377 0.01104,-0.049 0.03323,-0.088 0.07521,-0.1293 0.03858,-0.038 0.07005,-0.057 0.128131,-0.076 0.05708,-0.018 0.142792,-0.018 0.203815,0 0.08416,0.026 0.152679,0.082 0.187695,0.154 0.01653,0.034 0.01683,0.036 0.01706,0.1105 l 2.36e-4,0.076 -0.01795,0.037 c -0.0586,0.1196 -0.234085,0.1926 -0.369571,0.1537 z m 6.841901,0.01 c -0.01296,0 -0.04478,-0.01 -0.0707,-0.01 -0.02592,0 -0.06741,-0.011 -0.09219,-0.017 -0.02478,-0.01 -0.04967,-0.01 -0.0553,-0.01 -0.01149,0 -0.1185,-0.027 -0.166714,-0.042 -0.05064,-0.015 -0.08126,-0.028 -0.15057,-0.06 -0.06066,-0.028 -0.06132,-0.031 -0.03229,-0.1027 0.01321,-0.033 0.03066,-0.08 0.03877,-0.1043 0.01786,-0.054 0.06384,-0.1789 0.07511,-0.2043 0.0045,-0.01 0.01403,-0.034 0.0212,-0.052 0.0072,-0.019 0.01663,-0.036 0.02102,-0.039 0.0096,-0.01 0.03194,-2e-4 0.08697,0.023 0.07104,0.031 0.143753,0.054 0.198999,0.063 0.01584,0 0.04653,0.01 0.0682,0.013 0.05695,0.011 0.227259,0.01 0.266498,0 0.08944,-0.026 0.15445,-0.062 0.203071,-0.1134 0.04449,-0.047 0.06292,-0.095 0.0658,-0.1714 l 0.0013,-0.034 H 93.06545 c -0.20424,0 -0.223499,0 -0.269696,-0.015 -0.02736,-0.01 -0.06331,-0.016 -0.07988,-0.022 -0.01657,-0.01 -0.03313,-0.01 -0.0368,-0.01 -0.01,0 -0.116717,-0.045 -0.138927,-0.058 -0.106952,-0.065 -0.201923,-0.1497 -0.259231,-0.2309 -0.06932,-0.098 -0.12804,-0.2184 -0.142389,-0.2919 -0.002,-0.01 -0.0068,-0.029 -0.01079,-0.042 -0.02279,-0.074 -0.04408,-0.2257 -0.04429,-0.3147 -1.39e-4,-0.058 0.01448,-0.2183 0.02383,-0.2614 0.0041,-0.019 0.0097,-0.049 0.01244,-0.066 0.0028,-0.018 0.0073,-0.037 0.01002,-0.042 0.0027,-0.01 0.0067,-0.02 0.0087,-0.033 0.007,-0.044 0.04515,-0.1491 0.07516,-0.2069 0.09912,-0.1909 0.226726,-0.3192 0.408281,-0.4107 0.04782,-0.024 0.11896,-0.05 0.202673,-0.073 0.122757,-0.034 0.23631,-0.048 0.390298,-0.048 0.118987,0 0.293946,0.014 0.361185,0.029 0.01872,0 0.047,0.01 0.06284,0.011 0.01584,0 0.03705,0.01 0.04713,0.01 0.01008,0 0.02894,0.01 0.0419,0.01 0.07443,0.01 0.240169,0.074 0.262133,0.1 0.0065,0.01 0.0078,0.11 0.009,0.7241 0.001,0.5086 0.0031,0.7169 0.0071,0.7218 0.0086,0.01 0.881778,0.01 0.941123,-4e-4 0.06849,-0.012 0.102639,-0.035 0.127778,-0.086 l 0.01706,-0.035 v -1.1879 c 0,-1.1699 1.59e-4,-1.1881 0.01017,-1.1954 0.01518,-0.011 0.702864,-0.011 0.718061,0 0.0099,0.01 0.01027,0.021 0.01406,0.4909 0.0021,0.266 0.0033,0.8111 0.0026,1.2115 -0.0012,0.6874 -0.0018,0.7301 -0.01094,0.7672 -0.03624,0.1473 -0.06912,0.2213 -0.132019,0.2971 -0.06601,0.08 -0.168573,0.15 -0.266789,0.183 -0.06465,0.022 -0.08546,0.028 -0.09513,0.028 -0.0055,0 -0.02283,0 -0.03857,0.01 -0.01575,0 -0.05102,0.012 -0.07839,0.016 -0.02736,0 -0.06389,0.01 -0.08117,0.013 -0.02081,0 -0.215719,0.01 -0.577485,0.01 -0.513967,0 -0.546353,0 -0.55099,0.012 -0.0027,0.01 -0.0037,0.011 -0.0021,0.012 0.0047,0 -0.0084,0.129 -0.01911,0.1818 -0.01572,0.077 -0.02775,0.1123 -0.0686,0.1988 -0.06763,0.1431 -0.181708,0.2563 -0.345451,0.3427 -0.0809,0.043 -0.148637,0.065 -0.271732,0.091 -0.121782,0.026 -0.154455,0.029 -0.314209,0.03 -0.08497,0 -0.165091,0 -0.178052,0 z m 0.46841,-1.3781 c 0.0055,-0.01 0.0032,-1.1358 -0.0023,-1.1462 -0.0087,-0.016 -0.03531,-0.021 -0.11803,-0.021 -0.07229,0 -0.08302,0 -0.11451,0.013 -0.04765,0.018 -0.06894,0.033 -0.104653,0.071 -0.0397,0.043 -0.05852,0.087 -0.07869,0.183 -0.02475,0.1183 -0.03238,0.3567 -0.01647,0.5147 0.02654,0.2635 0.08711,0.3578 0.248131,0.3862 0.02747,0 0.181586,0 0.186507,0 z m 13.731218,1.3665 c -0.0317,0 -0.0835,-0.01 -0.11521,-0.015 -0.0317,-0.01 -0.063,-0.011 -0.0696,-0.011 -0.007,0 -0.0267,0 -0.0445,-0.01 -0.0179,0 -0.054,-0.013 -0.0803,-0.018 -0.0676,-0.015 -0.14808,-0.042 -0.21736,-0.073 -0.0782,-0.035 -0.0831,-0.039 -0.0831,-0.058 0,-0.014 0.0407,-0.1258 0.0663,-0.1829 0.004,-0.01 0.0113,-0.028 0.0151,-0.039 0.0468,-0.1432 0.0802,-0.227 0.0942,-0.2362 0.0113,-0.01 0.015,-0.01 0.0505,0.01 0.0748,0.033 0.13652,0.054 0.21901,0.074 0.071,0.018 0.0866,0.019 0.18067,0.023 0.0957,0 0.17125,0 0.20561,-0.016 0.11977,-0.05 0.1714,-0.091 0.20705,-0.1639 0.0211,-0.043 0.022,-0.047 0.022,-0.095 v -0.05 h -0.20162 c -0.24066,0 -0.28569,-0.01 -0.41633,-0.053 -0.11887,-0.039 -0.24344,-0.1234 -0.33276,-0.2252 -0.0701,-0.08 -0.10812,-0.1415 -0.15464,-0.2501 -0.0694,-0.162 -0.097,-0.3368 -0.0858,-0.5421 0.0105,-0.192 0.031,-0.2883 0.10039,-0.471 0.0406,-0.107 0.13601,-0.2431 0.22746,-0.3247 0.0996,-0.089 0.21477,-0.1546 0.33438,-0.191 0.17784,-0.054 0.27471,-0.068 0.46112,-0.068 0.0897,0 0.29477,0.012 0.31216,0.018 0.004,0 0.0306,0.01 0.0594,0.011 0.16922,0.026 0.3681,0.09 0.40324,0.1283 0.0103,0.012 0.0105,0.022 0.0143,0.7265 0.003,0.5363 0.005,0.7168 0.01,0.7223 0.005,0.01 0.1329,0.01 0.90217,0.01 0.79892,0 0.899,0 0.92358,-0.01 0.0705,-0.021 0.0994,-0.055 0.11325,-0.1323 0.0116,-0.065 0.0112,-0.075 -0.003,-0.078 -0.0145,0 -0.12696,-0.017 -0.16627,-0.022 -0.0159,0 -0.0417,-0.01 -0.0576,-0.01 -0.0159,0 -0.0441,-0.01 -0.0627,-0.011 -0.0187,0 -0.0431,-0.01 -0.0543,-0.011 -0.0113,0 -0.0265,-0.01 -0.034,-0.01 -0.0316,0 -0.19672,-0.045 -0.26885,-0.074 -0.0788,-0.031 -0.18658,-0.086 -0.22558,-0.1154 -0.0888,-0.067 -0.1646,-0.1543 -0.20022,-0.2314 -0.01,-0.021 -0.0241,-0.06 -0.0322,-0.088 -0.0144,-0.049 -0.0148,-0.053 -0.0148,-0.178 -9e-5,-0.1389 0.003,-0.161 0.0364,-0.2457 0.0413,-0.1055 0.15219,-0.2245 0.27003,-0.2899 0.0622,-0.035 0.20545,-0.089 0.28,-0.1054 0.31608,-0.072 0.78168,-0.048 1.06308,0.054 0.0144,0.01 0.0462,0.016 0.0707,0.024 0.0572,0.018 0.0819,0.031 0.0899,0.046 0.005,0.01 0.007,0.164 0.01,0.6664 0.003,0.6394 0.004,0.6553 0.0142,0.6842 0.006,0.016 0.0134,0.035 0.0167,0.041 0.0124,0.023 0.0439,0.053 0.067,0.063 0.0559,0.025 0.0725,0.026 0.37901,0.026 0.15891,2e-4 0.29072,0 0.29289,0 0.002,0 0.005,-0.053 0.007,-0.1141 0.003,-0.108 0.0158,-0.2168 0.0314,-0.2723 0.004,-0.014 0.01,-0.039 0.0126,-0.055 0.016,-0.089 0.0748,-0.2228 0.14636,-0.3322 0.0441,-0.067 0.15671,-0.1814 0.22091,-0.2237 0.13998,-0.092 0.26835,-0.1365 0.43728,-0.1511 0.0981,-0.01 0.27577,-5e-4 0.33515,0.015 0.0115,0 0.0374,0.01 0.0576,0.015 0.0565,0.014 0.125,0.042 0.19114,0.08 0.0824,0.046 0.0991,0.058 0.16249,0.1167 0.0917,0.084 0.16819,0.1921 0.21858,0.3085 0.0754,0.1742 0.10009,0.2898 0.10537,0.4923 l 0.003,0.123 h 0.30012 c 0.32897,0 0.34148,0 0.39181,-0.029 0.014,-0.01 0.0342,-0.026 0.0448,-0.04 0.0386,-0.051 0.0363,0.039 0.0323,-1.2648 l -0.003,-1.1659 0.0125,-0.01 c 0.0114,-0.01 0.0438,-0.01 0.36157,-0.01 0.30287,0 0.34991,0 0.35553,0.01 0.003,0 0.007,0.023 0.008,0.041 9.7e-4,0.018 0.004,0.5394 0.008,1.1587 0.005,1.0475 0.005,1.1312 -0.003,1.2018 -0.0163,0.1399 -0.0444,0.2251 -0.10391,0.3153 -0.0477,0.072 -0.0858,0.1098 -0.17382,0.1704 -0.0683,0.047 -0.21915,0.099 -0.31931,0.1091 -0.0173,0 -0.0456,0.01 -0.0628,0.01 -0.0519,0.011 -0.14355,0.014 -0.56034,0.014 -0.2189,2e-4 -0.40189,0 -0.40666,0 -0.005,0 -0.0182,0.022 -0.0298,0.044 -0.0455,0.084 -0.14316,0.1988 -0.22452,0.2631 -0.0409,0.033 -0.14532,0.093 -0.19676,0.114 -0.0545,0.022 -0.13063,0.044 -0.19228,0.053 -0.0245,0 -0.0608,0.01 -0.0806,0.013 -0.0516,0.01 -0.22846,0 -0.28855,-0.01 -0.15728,-0.03 -0.2283,-0.055 -0.31683,-0.1088 -0.0765,-0.047 -0.1173,-0.079 -0.17295,-0.1348 -0.0617,-0.062 -0.0977,-0.1092 -0.14607,-0.1901 l -0.0273,-0.046 -0.3466,3e-4 c -0.34945,3e-4 -0.4945,0 -0.55608,-0.019 -0.0173,0 -0.0467,-0.01 -0.0655,-0.013 -0.1076,-0.017 -0.21849,-0.061 -0.30636,-0.1204 -0.0173,-0.012 -0.035,-0.021 -0.0394,-0.021 -0.004,0 -0.0249,0.011 -0.0456,0.023 -0.0612,0.038 -0.12629,0.069 -0.1821,0.086 -0.0858,0.026 -0.10839,0.032 -0.14139,0.035 -0.0173,0 -0.0432,0.01 -0.0576,0.011 -0.0144,0 -0.0662,0.01 -0.11521,0.013 -0.049,0 -0.10122,0.01 -0.11611,0.01 -0.0149,0 -0.37464,0 -0.79942,0 -0.69366,3e-4 -0.77265,0 -0.77546,0.01 -0.002,0 -0.003,0.017 -0.003,0.028 0,0.026 -0.0198,0.1723 -0.0243,0.1796 -0.002,0 -0.007,0.019 -0.0102,0.035 -0.0135,0.059 -0.0486,0.151 -0.0732,0.1919 -0.0311,0.052 -0.0896,0.125 -0.13134,0.1648 -0.0681,0.065 -0.12613,0.1038 -0.23228,0.1552 -0.16574,0.08 -0.44671,0.1202 -0.70435,0.1004 z m 5.63744,-0.9079 c 0.0314,-0.016 0.0475,-0.034 0.0722,-0.081 0.0246,-0.046 0.0382,-0.091 0.0542,-0.1754 0.0112,-0.06 0.0119,-0.075 0.0117,-0.2959 -2e-4,-0.2174 -9.7e-4,-0.2374 -0.0119,-0.2985 -0.0207,-0.1163 -0.0465,-0.19 -0.0853,-0.2439 -0.0568,-0.079 -0.19687,-0.077 -0.25619,0 -0.0605,0.083 -0.0892,0.2494 -0.0893,0.5198 -8e-5,0.1275 0.009,0.2653 0.0223,0.3247 0.0269,0.1236 0.0426,0.1634 0.0816,0.2068 0.0272,0.03 0.0551,0.046 0.0903,0.052 0.0357,0.01 0.0837,4e-4 0.11038,-0.013 z m -5.191,-0.4714 c 0.007,0 0.008,-0.3577 0.002,-0.8793 l -0.003,-0.2722 -0.0393,-0.01 c -0.0934,-0.022 -0.20668,0 -0.27103,0.047 -0.0506,0.039 -0.0905,0.1236 -0.11725,0.25 -0.0117,0.055 -0.0122,0.067 -0.0121,0.2828 l 8e-5,0.2251 0.0143,0.065 c 0.0218,0.1 0.0388,0.1452 0.0745,0.199 0.0507,0.077 0.122,0.1009 0.28008,0.096 0.036,0 0.0684,0 0.072,0 z m 2.67456,-0.5939 c 0.002,0 0.003,-0.141 0.003,-0.3073 -2.1e-4,-0.2586 -0.001,-0.3036 -0.008,-0.3109 -0.0104,-0.012 -0.0996,-0.028 -0.15002,-0.028 -0.0504,2e-4 -0.10688,0.014 -0.15215,0.036 -0.0622,0.031 -0.0859,0.059 -0.11236,0.1334 -0.0124,0.035 -0.0139,0.046 -0.0142,0.1147 -3.1e-4,0.065 0.001,0.082 0.0117,0.1152 0.0373,0.1213 0.11129,0.1872 0.25203,0.2246 0.0513,0.014 0.10898,0.023 0.15549,0.026 0.006,4e-4 0.0129,0 0.0145,0 z m -9.29521,1.9694 c -0.0988,-0.015 -0.18386,-0.075 -0.22564,-0.16 -0.0194,-0.039 -0.0206,-0.045 -0.0223,-0.098 -10e-4,-0.047 1.2e-4,-0.062 0.009,-0.09 0.0579,-0.1741 0.27443,-0.2519 0.45601,-0.1639 0.10009,0.049 0.15694,0.1375 0.15677,0.2452 -1.8e-4,0.1185 -0.0656,0.204 -0.19223,0.2513 -0.0326,0.012 -0.0511,0.015 -0.098,0.017 -0.0319,0 -0.0697,0 -0.0841,0 z m 0.796,-10e-5 c -0.0581,-0.01 -0.1218,-0.037 -0.16091,-0.073 -0.11016,-0.1 -0.12722,-0.2339 -0.044,-0.3466 0.0345,-0.047 0.0645,-0.072 0.11001,-0.094 0.10561,-0.05 0.2143,-0.048 0.31594,0 0.17163,0.09 0.2023,0.3095 0.0606,0.4345 -0.0276,0.024 -0.0567,0.04 -0.10832,0.06 -0.0378,0.014 -0.12476,0.021 -0.1733,0.014 z m -18.169135,-0.8465 c -0.146345,-0.019 -0.293808,-0.077 -0.397998,-0.1548 -0.06124,-0.046 -0.08568,-0.068 -0.130666,-0.1192 -0.05383,-0.061 -0.06979,-0.084 -0.109588,-0.1563 -0.04687,-0.085 -0.07601,-0.1582 -0.09649,-0.2416 -0.0089,-0.036 -0.01812,-0.067 -0.02042,-0.068 -0.0056,0 -0.0054,-0.535 1.99e-4,-0.535 0.0024,0 0.0096,-0.025 0.01601,-0.056 0.01894,-0.091 0.04619,-0.1716 0.08726,-0.2565 0.04456,-0.092 0.07622,-0.1414 0.135328,-0.2104 0.0727,-0.085 0.174066,-0.1619 0.283334,-0.2152 0.04596,-0.022 0.07333,-0.032 0.18067,-0.065 0.114141,-0.035 0.233446,-0.05 0.404756,-0.05 0.134768,10e-5 0.17643,0 0.296978,0.018 0.06396,0.01 0.103545,0.015 0.154486,0.027 0.01728,0 0.0432,0.01 0.0576,0.012 0.102191,0.018 0.254445,0.081 0.268337,0.1106 0.005,0.011 0.0074,0.1777 0.01047,0.7306 l 0.004,0.7168 h 0.439893 c 0.391685,0 0.444197,5e-4 0.479169,-0.01 0.04039,-0.01 0.06383,-0.018 0.07986,-0.033 0.0087,-0.01 0.0092,-0.051 0.0092,-0.7814 0,-0.7426 3.82e-4,-0.7738 0.0096,-0.7821 0.0087,-0.01 0.04131,-0.01 0.360529,-0.01 0.327688,0 0.351485,0 0.358988,0.01 0.0071,0.01 0.0085,0.092 0.01166,0.7213 0.0035,0.6936 0.0039,0.7132 0.01419,0.7474 0.01846,0.062 0.05287,0.096 0.120039,0.1203 l 0.0336,0.012 h 0.36134 c 0.31569,0 0.366634,5e-4 0.403235,-0.01 0.04684,-0.01 0.08015,-0.023 0.09108,-0.036 0.0062,-0.01 0.0071,-0.1277 0.0062,-0.78 -0.0011,-0.74 -6.79e-4,-0.7715 0.0085,-0.7798 0.0086,-0.01 0.04298,-0.01 0.362514,-0.01 0.324387,0 0.353494,-4e-4 0.359368,0.01 0.0048,0.01 0.0073,0.114 0.01,0.4419 0.002,0.2383 0.0053,0.5652 0.0073,0.7265 l 0.0037,0.2933 0.01347,0.029 c 0.01843,0.04 0.04271,0.066 0.07742,0.083 0.05901,0.03 0.05327,0.029 0.48486,0.029 h 0.397998 l 0.0013,-1.1794 0.0013,-1.1795 0.01233,-0.01 c 0.01086,-0.01 0.05382,-0.01 0.359175,-0.01 h 0.346845 l 0.01001,0.012 c 0.0097,0.012 0.01005,0.03 0.01132,0.5682 7.27e-4,0.3057 0.0013,0.5912 0.0013,0.6344 0,0.055 0.0017,0.078 0.006,0.078 0.0033,0 0.01792,-0.017 0.03254,-0.039 0.01461,-0.022 0.05134,-0.068 0.0816,-0.1021 0.123971,-0.1413 0.274298,-0.2604 0.408815,-0.324 0.01728,-0.01 0.03537,-0.017 0.0402,-0.019 0.02855,-0.015 0.13438,-0.052 0.174509,-0.062 0.08299,-0.019 0.123704,-0.024 0.214709,-0.024 0.14006,2e-4 0.23268,0.022 0.356104,0.086 0.107551,0.055 0.198269,0.1294 0.276187,0.226 0.03626,0.045 0.0773,0.1046 0.0773,0.1123 0,0 0.0088,0.016 0.01949,0.033 0.03398,0.051 0.07322,0.1475 0.103717,0.2545 0.04857,0.1705 0.06702,0.3473 0.05534,0.53 -0.0036,0.057 -0.009,0.1143 -0.01182,0.1273 -0.0029,0.013 -0.0084,0.041 -0.01232,0.063 -0.01617,0.089 -0.06061,0.2309 -0.09284,0.2959 -0.048,0.097 -0.114181,0.1902 -0.180173,0.2543 -0.09144,0.089 -0.134738,0.1151 -0.268917,0.1624 l -0.03404,0.012 H 90.49685 c -1.122538,0.01 -2.153977,0.01 -2.262365,0 -0.05332,0 -0.102959,-0.01 -0.110314,-0.013 -0.0074,0 -0.02736,-0.01 -0.04445,-0.01 -0.0171,0 -0.03815,-0.01 -0.04679,-0.01 -0.0086,0 -0.02514,-0.01 -0.03666,-0.01 -0.07623,-0.014 -0.230188,-0.086 -0.259377,-0.121 -0.0103,-0.013 -0.02252,-0.01 -0.06063,0.016 -0.06789,0.045 -0.175175,0.091 -0.248191,0.1041 -0.01008,0 -0.02894,0.01 -0.04189,0.01 -0.04545,0.013 -0.144748,0.029 -0.222491,0.034 -0.119566,0.01 -0.613635,0.01 -0.721567,0 -0.04831,0 -0.0901,-0.01 -0.09286,-0.011 -0.0028,0 -0.02215,-0.01 -0.04308,-0.01 -0.127647,-0.024 -0.247247,-0.07 -0.322167,-0.1254 -0.01801,-0.013 -0.03454,-0.024 -0.03673,-0.024 -0.0022,0 -0.0161,0.01 -0.0309,0.018 -0.06947,0.047 -0.192333,0.1 -0.25573,0.1102 -0.01152,0 -0.03037,0.01 -0.04189,0.01 -0.03055,0.01 -0.132264,0.028 -0.201618,0.035 -0.09577,0.01 -1.884749,0.011 -1.958569,0 z m 0.417451,-0.5195 c 0.0023,0 0.003,-0.2648 0.0015,-0.5773 l -0.0026,-0.5682 -0.01833,-0.01 c -0.01472,-0.01 -0.03219,-0.01 -0.08863,-0.01 -0.06196,0 -0.07494,0 -0.109412,0.014 -0.04541,0.015 -0.07212,0.031 -0.09932,0.059 -0.05341,0.054 -0.09948,0.1575 -0.111154,0.2508 -0.0028,0.022 -0.008,0.054 -0.0115,0.07 -0.0044,0.02 -0.0064,0.093 -0.0066,0.233 -1.78e-4,0.1725 0.0012,0.2103 0.0086,0.2435 0.0048,0.022 0.01033,0.049 0.01222,0.06 0.0084,0.051 0.03551,0.1109 0.07007,0.1545 0.03282,0.041 0.0652,0.061 0.126257,0.077 0.03716,0.01 0.0594,0.012 0.134664,0.012 0.08096,3e-4 0.09057,0 0.09426,-0.01 z m 6.780216,0 c 0.01998,0 0.05573,-0.017 0.07945,-0.029 0.03496,-0.018 0.05148,-0.03 0.0872,-0.067 0.02424,-0.025 0.05255,-0.061 0.06292,-0.08 0.09725,-0.1743 0.124695,-0.4681 0.06382,-0.6831 -0.02953,-0.1043 -0.06566,-0.1745 -0.113343,-0.2203 -0.07133,-0.068 -0.109417,-0.086 -0.186152,-0.086 -0.06157,10e-5 -0.108398,0.013 -0.186256,0.053 -0.121513,0.061 -0.230209,0.1545 -0.35135,0.3008 -0.13716,0.1657 -0.275226,0.3842 -0.413336,0.6541 -0.03404,0.066 -0.06566,0.1271 -0.07026,0.1346 -0.0046,0.01 -0.0069,0.017 -0.005,0.022 0.0031,0.01 0.04238,0.01 0.499682,0.01 0.41636,0 0.502207,0 0.532674,-0.01 z m 5.747076,0.502 c -0.006,-0.01 -0.0077,-0.1871 -0.01038,-1.1063 -0.0017,-0.6036 -0.0038,-1.2755 -0.0045,-1.493 -7.27e-4,-0.2174 3.11e-4,-0.3993 0.0023,-0.4041 0.002,0 0.007,-0.01 0.01115,-0.012 0.0042,0 0.163435,0 0.353965,0 0.327152,-4e-4 0.346944,2e-4 0.355837,0.01 0.009,0.01 0.0098,0.079 0.01787,1.5037 0.008,1.4181 0.008,1.4947 -6.31e-4,1.5043 -0.0088,0.01 -0.02075,0.01 -0.363744,0.01 -0.323457,0 -0.355283,0 -0.361838,-0.01 z m 2.658353,0 c -0.112015,-0.021 -0.211652,-0.056 -0.284305,-0.098 -0.147053,-0.086 -0.283466,-0.2359 -0.343359,-0.3777 -0.0079,-0.019 -0.01637,-0.038 -0.01881,-0.042 -0.01649,-0.031 -0.04712,-0.1229 -0.05987,-0.1803 -0.02142,-0.096 -0.02557,-0.1441 -0.02549,-0.2932 1.18e-4,-0.2296 0.01831,-0.3349 0.09273,-0.5368 0.04457,-0.121 0.14617,-0.2657 0.244498,-0.3483 0.055,-0.046 0.135901,-0.1002 0.191259,-0.1276 0.05118,-0.025 0.213478,-0.081 0.255714,-0.087 0.01152,0 0.03627,-0.01 0.05499,-0.011 0.05103,-0.011 0.196464,-0.023 0.280601,-0.023 0.177514,0 0.429982,0.032 0.528663,0.066 0.01162,0 0.02519,0.01 0.03017,0.01 0.0167,0 0.14212,0.045 0.17614,0.063 0.0598,0.032 0.0532,-0.058 0.0565,0.7595 0.002,0.4493 0.005,0.7167 0.008,0.7208 0.006,0.01 0.81487,0.01 0.88203,0 0.0417,0 0.09,-0.02 0.10891,-0.034 0.0101,-0.01 0.0102,-0.018 0.009,-0.7805 -0.002,-0.7296 -0.001,-0.7733 0.008,-0.7828 0.009,-0.01 0.02,-0.01 0.36407,-0.01 0.2979,0 0.3561,0 0.36228,0.01 0.006,0.01 0.008,0.118 0.0108,0.7187 0.003,0.7002 0.004,0.712 0.0144,0.7482 0.0198,0.067 0.0559,0.1028 0.12487,0.1246 0.0337,0.011 0.0425,0.011 0.40628,0.01 0.22188,0 0.38237,0 0.398,-0.01 0.0144,0 0.0391,-0.012 0.055,-0.02 l 0.0288,-0.014 -0.002,-0.5445 c -0.002,-0.5337 -0.002,-0.5446 0.008,-0.5535 0.009,-0.01 0.0361,-0.01 0.3655,-0.01 0.25193,-2e-4 0.35699,0 0.36103,0.01 0.008,0.01 0.006,0.098 -0.004,0.1937 -0.011,0.1055 -0.0149,0.1924 -0.009,0.1961 0.003,0 0.0115,-0.01 0.0193,-0.022 0.0312,-0.054 0.16768,-0.254 0.21818,-0.3191 0.13055,-0.1683 0.25317,-0.287 0.40268,-0.3897 0.0558,-0.038 0.19494,-0.1042 0.26874,-0.1271 0.0671,-0.021 0.19768,-0.04 0.27327,-0.04 0.0437,0 0.15754,0.014 0.19805,0.024 0.0818,0.021 0.16664,0.06 0.25488,0.118 0.0796,0.052 0.19132,0.1693 0.24403,0.2557 0.0456,0.075 0.0763,0.1342 0.0928,0.1798 0.0106,0.029 0.0223,0.062 0.0259,0.072 0.0534,0.1478 0.0774,0.3008 0.0774,0.4923 -2e-5,0.1762 -0.014,0.2758 -0.0596,0.4268 -0.0122,0.04 -0.0157,0.05 -0.0439,0.1224 -0.039,0.1 -0.11531,0.2148 -0.19297,0.2905 -0.0678,0.066 -0.10132,0.091 -0.16143,0.1205 -0.0548,0.027 -0.0815,0.036 -0.14547,0.051 -0.0434,0.01 -0.081,0.01 -1.52915,0.014 -1.09672,0 -1.50037,0 -1.54486,0 -0.0988,-0.01 -0.17459,-0.02 -0.18853,-0.026 -0.007,0 -0.0249,-0.01 -0.0393,-0.01 -0.0144,0 -0.045,-0.01 -0.0681,-0.016 -0.0948,-0.028 -0.12855,-0.043 -0.20626,-0.093 l -0.0491,-0.032 -0.0163,0.01 c -0.13729,0.082 -0.20504,0.1096 -0.32372,0.1308 -0.0222,0 -0.0431,0.01 -0.0464,0.011 -0.003,0 -0.0335,0.01 -0.067,0.011 -0.0335,0 -0.0798,0.01 -0.10287,0.013 -0.0257,0 -0.4052,0 -0.97929,0 -0.900529,-4e-4 -0.939422,0 -0.989732,-0.011 z m 0.456137,-1.0792 c 2.96e-4,-0.3159 -0.0011,-0.5771 -0.0032,-0.5804 -0.002,0 -0.02771,-0.01 -0.05705,-0.014 -0.04953,-0.01 -0.05752,-0.01 -0.112034,0 -0.131312,0.021 -0.19556,0.089 -0.243234,0.2594 -0.0317,0.1131 -0.04446,0.3059 -0.03346,0.5053 0.01049,0.1901 0.07039,0.3295 0.159396,0.3709 0.06021,0.028 0.09837,0.034 0.210468,0.033 h 0.07855 z m 5.283412,0.5617 c 0.0616,-0.019 0.13139,-0.071 0.17383,-0.1281 0.0481,-0.065 0.0926,-0.1831 0.11177,-0.2965 0.0143,-0.084 0.0161,-0.2639 0.003,-0.3221 -0.004,-0.02 -0.009,-0.047 -0.0112,-0.06 -0.005,-0.036 -0.0322,-0.1127 -0.0611,-0.1724 -0.0218,-0.045 -0.033,-0.061 -0.0665,-0.095 -0.0774,-0.078 -0.13481,-0.095 -0.25233,-0.077 -0.0515,0.01 -0.10091,0.028 -0.169,0.066 -0.0761,0.043 -0.13639,0.092 -0.22115,0.1787 -0.087,0.089 -0.15335,0.1713 -0.22102,0.2741 -0.0246,0.037 -0.0539,0.081 -0.065,0.098 -0.0111,0.016 -0.047,0.078 -0.0797,0.1362 -0.0327,0.059 -0.0666,0.1186 -0.0754,0.1332 -0.009,0.015 -0.0175,0.032 -0.0196,0.038 -0.003,0.011 -0.016,0.037 -0.0875,0.182 -0.0116,0.024 -0.02,0.046 -0.0186,0.05 0.002,0.01 0.1,0.01 0.51494,0.01 0.48425,0 0.5141,0 0.54421,-0.011 z m 10.80181,0.5032 c -0.009,-0.01 -0.01,-0.043 -0.0131,-0.7842 -0.002,-0.4261 -0.003,-1.0989 -0.003,-1.4952 0,-0.6914 3.9e-4,-0.7209 0.01,-0.7292 0.009,-0.01 0.0412,-0.01 0.3586,-0.01 h 0.34903 l 0.008,0.013 c 0.007,0.011 0.009,0.099 0.013,0.7972 0.003,0.4317 0.005,1.1046 0.005,1.4956 1.6e-4,0.6973 -4e-5,0.7107 -0.01,0.7161 -0.007,0 -0.12844,0.01 -0.35872,0.01 -0.33107,0 -0.34908,0 -0.35819,-0.01 z m -32.367021,-2.4067 c -0.08182,-0.027 -0.123904,-0.056 -0.163359,-0.1143 -0.04999,-0.074 -0.06213,-0.1492 -0.036,-0.224 0.03475,-0.099 0.104619,-0.1613 0.218191,-0.1931 0.107214,-0.03 0.2362,0 0.316794,0.086 0.06732,0.068 0.09494,0.1466 0.07886,0.2254 -0.01147,0.056 -0.03138,0.092 -0.07671,0.1387 -0.04212,0.043 -0.07012,0.059 -0.140813,0.082 -0.0542,0.018 -0.143642,0.017 -0.196962,-3e-4 z m 0.798615,0 c -0.06579,-0.02 -0.09485,-0.037 -0.136772,-0.078 -0.04656,-0.045 -0.06265,-0.075 -0.07835,-0.1407 l -0.01135,-0.048 0.01129,-0.048 c 0.02693,-0.1133 0.09669,-0.1816 0.223849,-0.219 0.125395,-0.037 0.283843,0.02 0.358865,0.1291 0.02683,0.039 0.03621,0.067 0.03943,0.1164 0.0055,0.085 -0.01194,0.1367 -0.06512,0.1943 -0.04089,0.044 -0.08102,0.069 -0.142704,0.088 -0.04466,0.014 -0.05909,0.016 -0.108312,0.016 -0.04092,-3e-4 -0.0663,0 -0.09083,-0.011 z m 14.875851,-0.01 c -0.08185,-0.012 -0.164018,-0.063 -0.205391,-0.129 -0.05266,-0.084 -0.05075,-0.1968 0.0048,-0.2836 0.04156,-0.065 0.123562,-0.1156 0.214323,-0.1324 0.04824,-0.01 0.05368,-0.01 0.0995,0 0.08252,0.015 0.138218,0.043 0.190436,0.095 0.07119,0.071 0.09575,0.1546 0.07236,0.2459 -0.01062,0.041 -0.02843,0.072 -0.0647,0.1102 -0.05519,0.059 -0.113085,0.087 -0.199228,0.097 -0.05174,0.01 -0.05146,0.01 -0.112056,0 z m 0.774047,0 c -0.03164,-0.01 -0.08219,-0.029 -0.108322,-0.047 -0.03037,-0.021 -0.07984,-0.075 -0.09389,-0.1021 -0.01517,-0.03 -0.0303,-0.09 -0.03041,-0.1205 -9.9e-5,-0.031 0.01235,-0.081 0.02715,-0.1105 0.0399,-0.079 0.121155,-0.138 0.221376,-0.1607 0.05364,-0.012 0.07919,-0.012 0.133934,10e-5 0.137085,0.03 0.22704,0.1162 0.2454,0.2337 0.0163,0.1042 -0.0305,0.2028 -0.125339,0.2641 -0.05336,0.034 -0.08573,0.043 -0.172695,0.045 -0.04176,0 -0.08551,-2e-4 -0.09721,0 z m -12.026534,-0.029 c -0.09387,-0.019 -0.180579,-0.091 -0.217952,-0.1821 -0.01134,-0.028 -0.0134,-0.041 -0.01335,-0.085 6e-5,-0.047 0.0018,-0.056 0.01636,-0.091 0.02346,-0.055 0.05462,-0.097 0.09456,-0.1261 0.07118,-0.052 0.111761,-0.066 0.199452,-0.065 0.05639,3e-4 0.0706,0 0.102529,0.014 0.09217,0.033 0.159749,0.095 0.194786,0.1783 0.01189,0.028 0.01374,0.04 0.01399,0.091 2.79e-4,0.057 -1.78e-4,0.059 -0.01917,0.097 -0.02334,0.047 -0.04019,0.069 -0.07786,0.1015 -0.0741,0.063 -0.185998,0.09 -0.293343,0.068 z m 17.158942,-0.036 c -0.12967,-0.036 -0.21281,-0.1279 -0.22054,-0.2433 -0.001,-0.025 -4.9e-4,-0.06 0.002,-0.077 0.0154,-0.092 0.0953,-0.1775 0.19551,-0.2092 0.0358,-0.011 0.0514,-0.013 0.11079,-0.013 0.0621,10e-5 0.0734,0 0.11102,0.015 0.0519,0.018 0.0763,0.033 0.12209,0.077 0.0427,0.04 0.0649,0.081 0.0769,0.1409 0.008,0.038 0.008,0.045 -1.2e-4,0.086 -0.0129,0.069 -0.0378,0.1105 -0.0923,0.1552 -0.0887,0.073 -0.20146,0.098 -0.30556,0.069 z m 5.05091,0 c -0.0881,-0.019 -0.17949,-0.088 -0.21368,-0.1606 -0.009,-0.019 -0.0168,-0.042 -0.0169,-0.05 -7e-5,-0.01 -0.002,-0.024 -0.005,-0.036 -0.007,-0.032 0.006,-0.1021 0.0263,-0.1428 0.009,-0.017 0.0295,-0.045 0.046,-0.062 0.0746,-0.074 0.14831,-0.1001 0.26899,-0.093 0.0899,0 0.15105,0.033 0.21125,0.098 0.0385,0.042 0.0532,0.068 0.0627,0.1136 0.0191,0.091 4.9e-4,0.1698 -0.0545,0.2323 -0.0243,0.028 -0.0795,0.066 -0.11842,0.083 -0.0592,0.025 -0.13961,0.032 -0.20659,0.017 z"
       id="path1" /></g></svg>
